<?xml version="1.0" encoding="UTF-8"?>
<svg xmlns="http://www.w3.org/2000/svg" xmlns:xlink="http://www.w3.org/1999/xlink" width="800px" height="237px" viewBox="0 0 799 237" version="1.1">
<g id="surface1">
<path style=" stroke:none;fill-rule:nonzero;fill:rgb(75.294119%,24.313726%,7.843138%);fill-opacity:1;" d="M 51.226562 0 C 77.71875 -3.117188 77.71875 -3.117188 87.265625 -3.746094 C 88.171875 -3.804688 88.171875 -3.804688 89.09375 -3.867188 C 128.328125 -6.375 165.910156 -6.410156 197.042969 20.53125 C 200.324219 23.453125 203.46875 26.511719 206.570312 29.625 C 206.953125 30.007812 207.339844 30.394531 207.734375 30.789062 C 233.527344 56.675781 241.117188 84.285156 241.070312 120.304688 C 240.996094 129.882812 240.546875 139.449219 239.917969 149.007812 C 239.878906 149.566406 239.84375 150.125 239.804688 150.703125 C 239.019531 162.214844 237.523438 173.601562 236.175781 185.074219 C 219.269531 185.074219 202.363281 185.074219 184.949219 185.074219 C 184.949219 202.207031 184.949219 219.34375 184.949219 237 C 158.453125 240.117188 158.453125 240.117188 148.90625 240.746094 C 148.003906 240.804688 148.003906 240.804688 147.082031 240.867188 C 107.84375 243.375 70.261719 243.410156 39.128906 216.46875 C 35.847656 213.546875 32.707031 210.488281 29.605469 207.375 C 29.21875 206.992188 28.835938 206.605469 28.4375 206.210938 C 2.644531 180.324219 -4.941406 152.714844 -4.898438 116.695312 C -4.824219 107.117188 -4.375 97.550781 -3.742188 87.992188 C -3.707031 87.433594 -3.671875 86.875 -3.632812 86.296875 C -2.84375 74.785156 -1.347656 63.398438 0 51.925781 C 16.90625 51.925781 33.808594 51.925781 51.226562 51.925781 C 51.226562 34.792969 51.226562 17.65625 51.226562 0 Z M 51.890625 52.59375 C 51.890625 96.089844 51.890625 139.589844 51.890625 184.40625 C 95.582031 184.40625 139.269531 184.40625 184.28125 184.40625 C 184.28125 140.910156 184.28125 97.410156 184.28125 52.59375 C 140.59375 52.59375 96.90625 52.59375 51.890625 52.59375 Z M 51.890625 52.59375 "/>
<path style=" stroke:none;fill-rule:nonzero;fill:rgb(21.568628%,21.568628%,21.176471%);fill-opacity:1;" d="M 437.089844 83.882812 C 454.386719 83.882812 454.386719 83.882812 458.75 87.417969 C 459.777344 88.875 460.761719 90.359375 461.703125 91.871094 C 462.710938 93.132812 463.738281 94.382812 464.78125 95.617188 C 465.261719 96.214844 465.746094 96.8125 466.242188 97.429688 C 467.675781 99.175781 469.164062 100.851562 470.683594 102.523438 C 473.25 105.339844 475.667969 108.246094 478.046875 111.222656 C 480.292969 113.929688 482.652344 116.535156 484.988281 119.164062 C 485.207031 107.523438 485.425781 95.878906 485.652344 83.882812 C 492.460938 83.882812 499.265625 83.882812 506.277344 83.882812 C 506.277344 107.167969 506.277344 130.457031 506.277344 154.449219 C 488.980469 154.449219 488.980469 154.449219 485.28125 151.578125 C 484.480469 150.339844 483.714844 149.078125 482.992188 147.792969 C 482.070312 146.609375 481.128906 145.445312 480.164062 144.296875 C 479.675781 143.691406 479.1875 143.085938 478.683594 142.464844 C 476.023438 139.300781 473.183594 136.3125 470.359375 133.296875 C 468.074219 130.859375 465.882812 128.351562 463.699219 125.824219 C 461.941406 123.847656 460.1875 121.867188 458.378906 119.832031 C 458.15625 131.253906 457.9375 142.679688 457.710938 154.449219 C 450.90625 154.449219 444.101562 154.449219 437.089844 154.449219 C 437.089844 131.164062 437.089844 107.875 437.089844 83.882812 Z M 437.089844 83.882812 "/>
<path style=" stroke:none;fill-rule:nonzero;fill:rgb(21.568628%,21.568628%,21.176471%);fill-opacity:1;" d="M 343.117188 87.585938 C 351.535156 92.613281 356.488281 99.769531 359.355469 108.996094 C 361.746094 119.3125 360.476562 130.613281 355.09375 139.679688 C 349.097656 148.441406 341.132812 153.359375 330.753906 155.503906 C 319.476562 156.980469 308.308594 155.523438 298.710938 149.125 C 298.082031 148.707031 298.082031 148.707031 297.441406 148.285156 C 290.59375 143.085938 286.65625 134.777344 285.019531 126.550781 C 284.03125 119.296875 283.867188 110.15625 288.066406 103.855469 C 290.046875 103.675781 291.890625 103.621094 293.871094 103.660156 C 294.445312 103.660156 295.019531 103.664062 295.609375 103.667969 C 297.449219 103.679688 299.285156 103.703125 301.121094 103.730469 C 302.367188 103.738281 303.609375 103.75 304.855469 103.757812 C 307.90625 103.777344 310.957031 103.816406 314.011719 103.855469 C 314.011719 97.261719 314.011719 90.671875 314.011719 83.882812 C 323.105469 80.847656 334.816406 83.542969 343.117188 87.585938 Z M 308.984375 109.113281 C 306.257812 113.078125 305.675781 117.9375 306.191406 122.660156 C 307.414062 128.210938 310.140625 131.921875 314.675781 135.144531 C 318.890625 137.414062 323.386719 137.472656 327.917969 136.285156 C 332.265625 134.800781 335.015625 131.683594 337.296875 127.820312 C 339.375 122.628906 339.457031 116.886719 337.628906 111.59375 C 335.84375 107.6875 332.910156 104.988281 329.09375 103.078125 C 320.84375 100.496094 314.339844 102.847656 308.984375 109.113281 Z M 308.984375 109.113281 "/>
<path style=" stroke:none;fill-rule:nonzero;fill:rgb(21.568628%,21.568628%,21.176471%);fill-opacity:1;" d="M 367.234375 83.882812 C 373.328125 83.855469 379.417969 83.828125 385.695312 83.796875 C 387.601562 83.785156 389.507812 83.773438 391.472656 83.761719 C 393.007812 83.757812 394.542969 83.753906 396.078125 83.753906 C 396.859375 83.746094 397.636719 83.738281 398.4375 83.730469 C 408.078125 83.730469 417.203125 84.988281 424.449219 91.871094 C 430.171875 98.738281 431.09375 105.757812 430.574219 114.433594 C 429.976562 120.429688 426.953125 125.59375 422.554688 129.605469 C 416.984375 134.046875 411.390625 135.902344 404.308594 135.875 C 403.855469 135.875 403.402344 135.871094 402.9375 135.871094 C 401.5 135.867188 400.0625 135.859375 398.625 135.851562 C 397.648438 135.847656 396.671875 135.84375 395.691406 135.839844 C 393.300781 135.835938 390.914062 135.820312 388.523438 135.808594 C 388.523438 141.960938 388.523438 148.113281 388.523438 154.449219 C 381.496094 154.449219 374.472656 154.449219 367.234375 154.449219 C 367.234375 131.164062 367.234375 107.875 367.234375 83.882812 Z M 388.523438 101.855469 C 388.523438 107.347656 388.523438 112.839844 388.523438 118.5 C 391.671875 118.5625 391.671875 118.5625 394.882812 118.625 C 395.535156 118.644531 396.1875 118.660156 396.859375 118.679688 C 400.601562 118.714844 403.195312 118.324219 406.484375 116.503906 C 408.394531 114.347656 409.082031 113.039062 409.4375 110.179688 C 409.113281 107.574219 408.628906 106.023438 407.152344 103.855469 C 403.480469 101.320312 399.863281 101.625 395.589844 101.730469 C 393.257812 101.773438 390.925781 101.8125 388.523438 101.855469 Z M 388.523438 101.855469 "/>
<path style=" stroke:none;fill-rule:nonzero;fill:rgb(21.568628%,21.568628%,21.176471%);fill-opacity:1;" d="M 664.613281 106.515625 C 666.527344 108.179688 666.527344 108.179688 667.941406 109.84375 C 668.308594 110.269531 668.679688 110.695312 669.0625 111.136719 C 670.933594 114.078125 671.433594 117 671.417969 120.441406 C 671.417969 121.199219 671.417969 121.957031 671.417969 122.742188 C 671.410156 123.550781 671.402344 124.359375 671.394531 125.195312 C 671.394531 126.03125 671.394531 126.867188 671.390625 127.730469 C 671.382812 129.941406 671.371094 132.15625 671.359375 134.367188 C 671.34375 136.628906 671.339844 138.894531 671.332031 141.15625 C 671.316406 145.585938 671.292969 150.019531 671.265625 154.449219 C 664.679688 154.449219 658.09375 154.449219 651.308594 154.449219 C 651.269531 151.480469 651.269531 151.480469 651.234375 148.449219 C 651.203125 146.527344 651.167969 144.609375 651.132812 142.6875 C 651.113281 141.351562 651.09375 140.019531 651.078125 138.6875 C 651.054688 136.765625 651.019531 134.847656 650.984375 132.929688 C 650.980469 132.335938 650.976562 131.742188 650.96875 131.128906 C 650.886719 127.632812 650.578125 125.09375 647.980469 122.496094 C 644.574219 122.070312 644.574219 122.070312 641.597656 123.320312 C 640.421875 124.796875 640.402344 125.59375 640.375 127.46875 C 640.363281 128.066406 640.351562 128.667969 640.335938 129.285156 C 640.328125 130.253906 640.328125 130.253906 640.324219 131.238281 C 640.3125 131.902344 640.300781 132.5625 640.285156 133.246094 C 640.25 135.363281 640.226562 137.480469 640.207031 139.59375 C 640.183594 141.03125 640.160156 142.464844 640.136719 143.898438 C 640.078125 147.414062 640.039062 150.933594 640 154.449219 C 633.191406 154.449219 626.386719 154.449219 619.375 154.449219 C 619.375 137.972656 619.375 121.496094 619.375 104.519531 C 625.523438 104.519531 631.667969 104.519531 638.003906 104.519531 C 638.222656 105.617188 638.441406 106.714844 638.667969 107.847656 C 639.070312 107.617188 639.46875 107.382812 639.882812 107.144531 C 640.679688 106.6875 640.679688 106.6875 641.496094 106.226562 C 642.019531 105.925781 642.542969 105.625 643.085938 105.3125 C 649.085938 102.28125 659.074219 102.640625 664.613281 106.515625 Z M 664.613281 106.515625 "/>
<path style=" stroke:none;fill-rule:nonzero;fill:rgb(21.568628%,21.568628%,21.176471%);fill-opacity:1;" d="M 768.570312 107.394531 C 773.875 110.980469 776.007812 115.628906 777.382812 121.761719 C 778.082031 126.152344 777.914062 130.128906 777.046875 134.476562 C 766.945312 134.695312 756.847656 134.917969 746.441406 135.144531 C 749.769531 138.472656 753.128906 139.269531 757.710938 139.429688 C 763.21875 139.320312 768.429688 137.894531 773.71875 136.476562 C 774.054688 138.402344 774.386719 140.328125 774.71875 142.257812 C 774.8125 142.800781 774.90625 143.34375 775.003906 143.90625 C 775.457031 146.558594 775.847656 149.082031 775.714844 151.785156 C 765.339844 156.425781 753.300781 157.679688 742.453125 153.785156 C 735.996094 151.242188 731.652344 147.539062 728.480469 141.335938 C 725.285156 133.964844 725.59375 125.253906 728.480469 117.835938 C 731.78125 110.976562 736.730469 107.136719 743.78125 104.519531 C 751.804688 102.203125 761.441406 103.226562 768.570312 107.394531 Z M 747.773438 120.496094 C 746.152344 122.25 746.152344 122.25 745.777344 124.492188 C 750.167969 124.492188 754.558594 124.492188 759.082031 124.492188 C 757.96875 121.261719 757.96875 121.261719 755.757812 119.164062 C 752.359375 118.285156 750.535156 118.269531 747.773438 120.496094 Z M 747.773438 120.496094 "/>
<path style=" stroke:none;fill-rule:nonzero;fill:rgb(21.568628%,21.568628%,21.176471%);fill-opacity:1;" d="M 604.441406 107.644531 C 608.917969 111.269531 611.335938 115.617188 612.722656 121.164062 C 612.722656 125.558594 612.722656 129.949219 612.722656 134.476562 C 602.402344 134.476562 592.085938 134.476562 581.453125 134.476562 C 585.40625 138.433594 587.738281 139.171875 593.136719 139.34375 C 598.453125 139.265625 603.695312 138.15625 608.730469 136.476562 C 610.164062 141.5 610.757812 146.613281 611.390625 151.785156 C 600.378906 156.101562 588.894531 157.691406 577.460938 153.785156 C 570.984375 150.9375 566.566406 146.867188 563.492188 140.46875 C 561.007812 133.449219 560.953125 124.210938 563.984375 117.359375 C 567.414062 111.113281 572.0625 106.933594 578.792969 104.519531 C 586.972656 102.398438 597.351562 102.929688 604.441406 107.644531 Z M 582.785156 120.496094 C 581.269531 122.371094 581.269531 122.371094 581.453125 124.492188 C 585.625 124.492188 589.796875 124.492188 594.09375 124.492188 C 593.785156 121.125 593.785156 121.125 591.558594 119.625 C 588.046875 117.765625 586.039062 118.585938 582.785156 120.496094 Z M 582.785156 120.496094 "/>
<path style=" stroke:none;fill-rule:nonzero;fill:rgb(21.568628%,21.568628%,21.176471%);fill-opacity:1;" d="M 554.84375 105.851562 C 553.855469 113.761719 553.855469 113.761719 552.847656 121.828125 C 551.804688 121.609375 550.761719 121.390625 549.6875 121.164062 C 543.679688 120.136719 537.628906 120.390625 531.558594 120.496094 C 531.558594 120.9375 531.558594 121.375 531.558594 121.828125 C 532.425781 121.9375 532.425781 121.9375 533.316406 122.050781 C 550.921875 124.394531 550.921875 124.394531 555.800781 130.523438 C 557.847656 134.730469 558.078125 139.878906 556.796875 144.339844 C 554.996094 148.816406 552.121094 151.96875 547.679688 153.886719 C 543.3125 155.539062 538.898438 156.019531 534.261719 155.988281 C 533.722656 155.988281 533.1875 155.984375 532.632812 155.984375 C 526.296875 155.882812 519.625 155.128906 513.59375 153.117188 C 513.800781 150.953125 514.007812 148.789062 514.21875 146.628906 C 514.277344 146.015625 514.335938 145.402344 514.394531 144.769531 C 514.453125 144.179688 514.511719 143.585938 514.570312 142.976562 C 514.621094 142.433594 514.675781 141.886719 514.726562 141.328125 C 514.914062 139.890625 515.207031 138.539062 515.589844 137.140625 C 516.148438 137.277344 516.703125 137.414062 517.277344 137.554688 C 527.582031 140.261719 527.582031 140.261719 537.546875 138.472656 C 536.960938 138.378906 536.960938 138.378906 536.367188 138.28125 C 520.089844 135.570312 520.089844 135.570312 515.257812 130.859375 C 512.488281 126.121094 512.011719 120.789062 513.363281 115.460938 C 515.304688 110.53125 518.609375 107.839844 523.324219 105.644531 C 532.675781 101.640625 545.324219 103.253906 554.84375 105.851562 Z M 554.84375 105.851562 "/>
<path style=" stroke:none;fill-rule:nonzero;fill:rgb(21.568628%,21.568628%,21.176471%);fill-opacity:1;" d="M 701.703125 103.605469 C 702.398438 103.609375 703.09375 103.613281 703.8125 103.617188 C 709.140625 103.703125 714.039062 104.332031 719.167969 105.851562 C 718.527344 116.332031 718.527344 116.332031 717.835938 121.164062 C 715.6875 121.878906 715.253906 121.789062 713.179688 121.210938 C 709.59375 120.34375 706.164062 120.347656 702.492188 120.414062 C 701.855469 120.421875 701.214844 120.425781 700.554688 120.433594 C 698.996094 120.449219 697.441406 120.46875 695.882812 120.496094 C 695.882812 120.9375 695.882812 121.375 695.882812 121.828125 C 696.515625 121.902344 697.152344 121.972656 697.808594 122.050781 C 714.28125 124.070312 714.28125 124.070312 719.375 129.441406 C 722.246094 133.808594 722.386719 138.023438 721.828125 143.132812 C 720.554688 147.65625 718.273438 150.648438 714.210938 152.996094 C 703.625 157.910156 689.472656 156.75 678.585938 153.117188 C 679.226562 141.871094 679.226562 141.871094 679.914062 137.140625 C 680.472656 137.277344 681.027344 137.414062 681.601562 137.554688 C 692.015625 139.96875 692.015625 139.96875 702.535156 139.136719 C 700.019531 137.589844 697.328125 137.347656 694.46875 136.933594 C 688.90625 136.027344 683.746094 134.796875 679.875 130.398438 C 677.84375 127.382812 677.777344 124.8125 677.753906 121.289062 C 677.738281 120.820312 677.726562 120.355469 677.710938 119.878906 C 677.679688 115.746094 678.75 113.164062 681.453125 110.09375 C 687.558594 104.695312 693.730469 103.496094 701.703125 103.605469 Z M 701.703125 103.605469 "/>
<path style=" stroke:none;fill-rule:nonzero;fill:rgb(21.568628%,21.568628%,21.176471%);fill-opacity:1;" d="M 793.867188 80.167969 C 796.570312 82.386719 798.5 84.296875 799 87.875 C 799.035156 91.921875 798.320312 94.683594 795.671875 97.863281 C 792.722656 100.457031 789.9375 100.796875 786.121094 100.753906 C 783.21875 100.375 781.191406 99.140625 779.042969 97.195312 C 776.617188 93.933594 776.578125 90.464844 777.046875 86.546875 C 778.152344 83.394531 779.578125 81.707031 782.367188 79.886719 C 786.203125 78.054688 790.207031 77.886719 793.867188 80.167969 Z M 783.699219 83.214844 C 783.699219 83.4375 783.699219 83.65625 783.699219 83.882812 C 784.164062 83.914062 784.628906 83.945312 785.105469 83.980469 C 785.710938 84.03125 786.316406 84.082031 786.941406 84.132812 C 787.542969 84.179688 788.144531 84.222656 788.765625 84.273438 C 790.351562 84.546875 790.351562 84.546875 791.683594 85.878906 C 791.90625 90.089844 791.90625 90.089844 791.015625 91.871094 C 791.894531 92.75 792.773438 93.628906 793.679688 94.535156 C 795.21875 92.5 795.679688 91.464844 795.632812 88.875 C 794.945312 86.3125 794.242188 85.058594 792.347656 83.214844 C 789.21875 81.574219 786.789062 81.449219 783.699219 83.214844 Z M 782.367188 83.882812 C 780.335938 86.566406 780.015625 88.542969 780.371094 91.871094 C 781.234375 93.796875 781.234375 93.796875 782.367188 95.199219 C 782.585938 95.199219 782.808594 95.199219 783.035156 95.199219 C 783.035156 91.464844 783.035156 87.730469 783.035156 83.882812 C 782.8125 83.882812 782.59375 83.882812 782.367188 83.882812 Z M 786.359375 87.210938 C 786.359375 87.871094 786.359375 88.527344 786.359375 89.207031 C 787.238281 88.988281 788.117188 88.769531 789.019531 88.542969 C 789.019531 88.101562 789.019531 87.664062 789.019531 87.210938 C 788.144531 87.210938 787.265625 87.210938 786.359375 87.210938 Z M 786.359375 92.535156 C 786.359375 93.414062 786.359375 94.292969 786.359375 95.199219 C 785.261719 95.199219 784.164062 95.199219 783.035156 95.199219 C 784.003906 96.363281 784.003906 96.363281 785.695312 97.195312 C 787.738281 97.238281 789.707031 97.0625 791.683594 96.53125 C 791.902344 96.089844 792.121094 95.652344 792.347656 95.199219 C 791.566406 95.097656 791.566406 95.097656 790.765625 94.992188 C 789.019531 94.535156 789.019531 94.535156 787.691406 92.535156 C 787.25 92.535156 786.8125 92.535156 786.359375 92.535156 Z M 786.359375 92.535156 "/>
<path style=" stroke:none;fill-rule:nonzero;fill:rgb(75.294119%,24.313726%,7.843138%);fill-opacity:1;" d="M 420.125 185.074219 C 420.453125 185.292969 420.78125 185.511719 421.121094 185.738281 C 421.339844 185.519531 421.5625 185.300781 421.785156 185.074219 C 423.117188 185.046875 424.449219 185.042969 425.777344 185.074219 C 425.835938 187.984375 425.871094 190.898438 425.902344 193.8125 C 425.921875 194.632812 425.9375 195.457031 425.953125 196.308594 C 425.960938 197.105469 425.96875 197.902344 425.972656 198.726562 C 425.984375 199.457031 425.996094 200.191406 426.003906 200.945312 C 425.679688 203.945312 424.699219 206.210938 422.453125 208.25 C 420.125 209.628906 418.199219 209.8125 415.550781 209.828125 C 414.925781 209.839844 414.304688 209.847656 413.664062 209.859375 C 411.699219 209.695312 410.261719 209.191406 408.480469 208.375 C 408.699219 207.273438 408.921875 206.175781 409.148438 205.046875 C 409.703125 205.203125 409.703125 205.203125 410.269531 205.367188 C 411.925781 205.738281 413.4375 205.847656 415.132812 205.878906 C 415.976562 205.902344 415.976562 205.902344 416.839844 205.929688 C 418.8125 205.664062 419.714844 205.109375 421.121094 203.714844 C 421.121094 203.054688 421.121094 202.394531 421.121094 201.714844 C 420.558594 201.949219 419.996094 202.183594 419.417969 202.421875 C 415.871094 203.390625 413.5 202.925781 410.269531 201.21875 C 407.933594 199.257812 407.339844 197.984375 406.984375 194.984375 C 406.789062 191.347656 407.328125 189.226562 409.8125 186.40625 C 412.867188 183.859375 416.429688 183.59375 420.125 185.074219 Z M 411.140625 190.398438 C 410.382812 193.007812 410.207031 194.414062 411.265625 196.929688 C 412.550781 198.480469 413.207031 199.167969 415.132812 199.71875 C 417.503906 199.621094 418.761719 199.328125 420.664062 197.886719 C 421.96875 196.148438 422.398438 195.238281 422.453125 193.0625 C 421.425781 190.441406 420.824219 189.3125 418.460938 187.734375 C 415.109375 187.296875 413.410156 187.871094 411.140625 190.398438 Z M 411.140625 190.398438 "/>
<path style=" stroke:none;fill-rule:nonzero;fill:rgb(75.294119%,24.313726%,7.843138%);fill-opacity:1;" d="M 608.730469 184.40625 C 610.394531 185.40625 610.394531 185.40625 611.390625 186.40625 C 611.789062 186.199219 612.1875 185.992188 612.597656 185.78125 C 615.402344 184.417969 617.601562 184.191406 620.707031 184.40625 C 623.058594 185.507812 623.90625 186.214844 625.363281 188.402344 C 625.511719 189.910156 625.511719 189.910156 625.492188 191.65625 C 625.488281 192.277344 625.484375 192.902344 625.480469 193.546875 C 625.46875 194.195312 625.457031 194.847656 625.445312 195.515625 C 625.4375 196.175781 625.433594 196.832031 625.425781 197.511719 C 625.410156 199.132812 625.390625 200.757812 625.363281 202.382812 C 624.265625 202.382812 623.167969 202.382812 622.035156 202.382812 C 622 201.121094 622 201.121094 621.960938 199.832031 C 621.917969 198.726562 621.871094 197.621094 621.828125 196.515625 C 621.804688 195.683594 621.804688 195.683594 621.78125 194.835938 C 621.757812 194.300781 621.734375 193.765625 621.710938 193.214844 C 621.695312 192.722656 621.675781 192.230469 621.65625 191.726562 C 621.292969 190.042969 620.75 189.417969 619.375 188.402344 C 616.949219 188.550781 615.792969 188.65625 614.050781 190.398438 C 613.808594 191.683594 613.808594 191.683594 613.777344 193.148438 C 613.75 193.6875 613.726562 194.222656 613.699219 194.777344 C 613.667969 195.617188 613.667969 195.617188 613.636719 196.472656 C 613.609375 197.039062 613.585938 197.605469 613.558594 198.1875 C 613.496094 199.585938 613.441406 200.984375 613.386719 202.382812 C 612.070312 202.382812 610.753906 202.382812 609.394531 202.382812 C 609.386719 202.003906 609.375 201.628906 609.367188 201.242188 C 609.316406 199.542969 609.253906 197.839844 609.1875 196.140625 C 609.171875 195.546875 609.15625 194.957031 609.140625 194.347656 C 609.105469 193.496094 609.105469 193.496094 609.070312 192.628906 C 609.054688 192.105469 609.035156 191.585938 609.019531 191.046875 C 608.832031 189.464844 608.832031 189.464844 606.734375 188.402344 C 604.6875 188.457031 604.6875 188.457031 602.742188 189.066406 C 601.429688 191.039062 601.238281 191.515625 601.136719 193.734375 C 601.109375 194.238281 601.085938 194.742188 601.058594 195.261719 C 601.039062 195.785156 601.015625 196.308594 600.996094 196.847656 C 600.96875 197.378906 600.945312 197.910156 600.917969 198.457031 C 600.855469 199.765625 600.800781 201.074219 600.746094 202.382812 C 599.648438 202.382812 598.550781 202.382812 597.421875 202.382812 C 597.421875 196.671875 597.421875 190.957031 597.421875 185.074219 C 598.972656 185.074219 600.523438 185.074219 602.078125 185.074219 C 604.191406 184.015625 606.429688 184.132812 608.730469 184.40625 Z M 608.730469 184.40625 "/>
<path style=" stroke:none;fill-rule:nonzero;fill:rgb(75.294119%,24.313726%,7.843138%);fill-opacity:1;" d="M 490.976562 185.074219 C 492.074219 185.074219 493.171875 185.074219 494.300781 185.074219 C 497.628906 193.847656 497.628906 193.847656 497.628906 197.054688 C 498.066406 197.054688 498.507812 197.054688 498.960938 197.054688 C 499.03125 196.691406 499.105469 196.332031 499.179688 195.957031 C 499.964844 192.226562 501.011719 188.664062 502.285156 185.074219 C 503.601562 185.074219 504.921875 185.074219 506.277344 185.074219 C 507.59375 188.808594 508.910156 192.542969 510.269531 196.390625 C 511.335938 192.914062 511.335938 192.914062 512.398438 189.4375 C 513.519531 185.8125 513.519531 185.8125 514.261719 185.074219 C 515.367188 185.046875 516.480469 185.042969 517.585938 185.074219 C 517.164062 189.015625 516.117188 192.589844 514.882812 196.347656 C 514.601562 197.222656 514.601562 197.222656 514.316406 198.113281 C 513.859375 199.539062 513.394531 200.960938 512.929688 202.382812 C 511.394531 202.382812 509.855469 202.382812 508.273438 202.382812 C 505.339844 195.476562 505.339844 195.476562 504.945312 191.730469 C 504.507812 191.730469 504.070312 191.730469 503.617188 191.730469 C 503.507812 192.296875 503.507812 192.296875 503.394531 192.878906 C 502.699219 196.273438 501.757812 199.242188 500.289062 202.382812 C 498.753906 202.382812 497.214844 202.382812 495.632812 202.382812 C 494.851562 199.875 494.078125 197.363281 493.304688 194.851562 C 493.082031 194.136719 492.859375 193.421875 492.632812 192.6875 C 492.421875 192.003906 492.210938 191.320312 491.996094 190.613281 C 491.800781 189.984375 491.605469 189.351562 491.402344 188.703125 C 490.976562 187.070312 490.976562 187.070312 490.976562 185.074219 Z M 490.976562 185.074219 "/>
<path style=" stroke:none;fill-rule:nonzero;fill:rgb(75.294119%,24.313726%,7.843138%);fill-opacity:1;" d="M 666.609375 177.085938 C 667.707031 177.085938 668.804688 177.085938 669.9375 177.085938 C 669.9375 185.433594 669.9375 193.78125 669.9375 202.382812 C 668.839844 202.382812 667.742188 202.382812 666.609375 202.382812 C 666.390625 201.941406 666.171875 201.503906 665.945312 201.050781 C 665.300781 201.40625 664.65625 201.765625 663.988281 202.132812 C 661.34375 203.261719 659.421875 203.046875 656.6875 202.296875 C 654.585938 201.417969 653.359375 200.164062 651.972656 198.386719 C 650.847656 195.007812 650.902344 192.144531 652.140625 188.859375 C 653.769531 186.351562 655.144531 185.347656 657.960938 184.40625 C 661.820312 184.117188 662.914062 184.554688 666.609375 186.40625 C 666.609375 183.328125 666.609375 180.253906 666.609375 177.085938 Z M 655.300781 190.398438 C 654.542969 193.007812 654.363281 194.414062 655.425781 196.929688 C 656.707031 198.480469 657.363281 199.167969 659.292969 199.71875 C 661.636719 199.621094 662.917969 199.320312 664.820312 197.929688 C 666.25 195.972656 666.609375 194.824219 666.609375 192.394531 C 665.113281 189.570312 665.113281 189.570312 662.617188 187.734375 C 659.257812 187.363281 657.582031 187.855469 655.300781 190.398438 Z M 655.300781 190.398438 "/>
<path style=" stroke:none;fill-rule:nonzero;fill:rgb(75.294119%,24.313726%,7.843138%);fill-opacity:1;" d="M 296.050781 177.667969 C 297.285156 177.664062 297.285156 177.664062 298.542969 177.660156 C 300.707031 177.75 300.707031 177.75 302.703125 178.414062 C 302.703125 179.734375 302.703125 181.050781 302.703125 182.410156 C 302.339844 182.300781 301.976562 182.195312 301.605469 182.082031 C 299.800781 181.691406 298.144531 181.65625 296.296875 181.660156 C 295.660156 181.660156 295.019531 181.65625 294.359375 181.65625 C 292.71875 181.636719 292.71875 181.636719 291.390625 182.410156 C 291.390625 183.507812 291.390625 184.605469 291.390625 185.738281 C 291.761719 185.898438 292.132812 186.0625 292.515625 186.226562 C 295.132812 187.378906 297.746094 188.546875 300.332031 189.773438 C 300.757812 189.976562 301.179688 190.175781 301.617188 190.378906 C 302.703125 191.066406 302.703125 191.066406 304.03125 193.0625 C 304.257812 195.488281 304.199219 197.257812 303.367188 199.550781 C 301.46875 201.691406 299.46875 202.546875 296.714844 203.046875 C 293.117188 203.082031 289.902344 202.851562 286.734375 201.050781 C 286.734375 199.953125 286.734375 198.855469 286.734375 197.722656 C 287.3125 197.832031 287.890625 197.945312 288.488281 198.058594 C 289.253906 198.195312 290.019531 198.332031 290.808594 198.472656 C 291.566406 198.609375 292.324219 198.75 293.101562 198.890625 C 295.5625 199.066406 297.113281 198.652344 299.375 197.722656 C 299.375 196.402344 299.375 195.085938 299.375 193.726562 C 298.742188 193.527344 298.109375 193.324219 297.453125 193.117188 C 296.613281 192.835938 295.769531 192.554688 294.925781 192.269531 C 294.101562 192 293.273438 191.730469 292.425781 191.453125 C 289.878906 190.316406 288.480469 189.230469 286.734375 187.070312 C 286.171875 185.226562 286.320312 183.617188 286.734375 181.746094 C 289.21875 177.714844 291.554688 177.65625 296.050781 177.667969 Z M 296.050781 177.667969 "/>
<path style=" stroke:none;fill-rule:nonzero;fill:rgb(75.294119%,24.313726%,7.843138%);fill-opacity:1;" d="M 734.800781 185.074219 C 735.128906 185.292969 735.460938 185.511719 735.796875 185.738281 C 736.019531 185.519531 736.238281 185.300781 736.464844 185.074219 C 737.78125 185.074219 739.097656 185.074219 740.457031 185.074219 C 740.457031 190.785156 740.457031 196.496094 740.457031 202.382812 C 738.460938 202.382812 736.464844 202.382812 734.46875 202.382812 C 733.660156 202.546875 732.847656 202.710938 732.015625 202.882812 C 728.75 203.296875 726.421875 202.355469 723.824219 200.386719 C 721.816406 197.683594 721.472656 195.136719 721.59375 191.851562 C 722.078125 188.839844 723.714844 187.050781 725.984375 185.15625 C 728.945312 183.945312 731.777344 183.863281 734.800781 185.074219 Z M 725.820312 190.398438 C 725.0625 193.007812 724.882812 194.414062 725.945312 196.929688 C 727.226562 198.480469 727.882812 199.167969 729.8125 199.71875 C 732.183594 199.621094 733.441406 199.328125 735.339844 197.886719 C 736.644531 196.148438 737.078125 195.238281 737.128906 193.0625 C 736.101562 190.441406 735.5 189.3125 733.136719 187.734375 C 729.789062 187.296875 728.085938 187.871094 725.820312 190.398438 Z M 725.820312 190.398438 "/>
<path style=" stroke:none;fill-rule:nonzero;fill:rgb(75.294119%,24.313726%,7.843138%);fill-opacity:1;" d="M 470.351562 184.40625 C 473.609375 186.003906 475.113281 187.652344 476.339844 191.066406 C 476.339844 192.382812 476.339844 193.699219 476.339844 195.058594 C 471.949219 195.277344 467.558594 195.5 463.035156 195.726562 C 465.925781 198.679688 465.925781 198.679688 469.6875 199.054688 C 471.511719 198.71875 473.222656 198.246094 475.007812 197.722656 C 475.007812 199.039062 475.007812 200.359375 475.007812 201.714844 C 470.25 203.160156 466.773438 203.609375 462.160156 201.257812 C 460.082031 199.46875 459.21875 198.34375 458.378906 195.726562 C 458.285156 192.265625 458.742188 189.097656 461.039062 186.40625 C 464.035156 184.382812 466.824219 183.78125 470.351562 184.40625 Z M 462.367188 191.066406 C 462.367188 191.285156 462.367188 191.503906 462.367188 191.730469 C 465.660156 191.730469 468.957031 191.730469 472.347656 191.730469 C 471.460938 188.4375 471.460938 188.4375 469.6875 187.734375 C 465.992188 187.242188 464.703125 188.246094 462.367188 191.066406 Z M 462.367188 191.066406 "/>
<path style=" stroke:none;fill-rule:nonzero;fill:rgb(75.294119%,24.313726%,7.843138%);fill-opacity:1;" d="M 319.875 185.28125 C 322.003906 186.925781 323.128906 187.808594 323.992188 190.398438 C 323.992188 191.9375 323.992188 193.472656 323.992188 195.058594 C 319.601562 195.277344 315.210938 195.5 310.683594 195.726562 C 313.578125 198.679688 313.578125 198.679688 317.339844 199.054688 C 319.164062 198.71875 320.875 198.246094 322.660156 197.722656 C 322.878906 198.820312 323.097656 199.917969 323.324219 201.050781 C 319.246094 202.722656 316.34375 203.445312 312.015625 202.382812 C 309.546875 201.011719 308.261719 200.074219 306.695312 197.722656 C 305.882812 194.210938 305.996094 191.746094 307.359375 188.402344 C 310.742188 184.410156 315 183.003906 319.875 185.28125 Z M 310.683594 189.734375 C 310.464844 190.390625 310.246094 191.050781 310.019531 191.730469 C 313.3125 191.730469 316.605469 191.730469 320 191.730469 C 319.617188 188.933594 319.617188 188.933594 317.339844 187.734375 C 314.535156 187.367188 312.929688 188.046875 310.683594 189.734375 Z M 310.683594 189.734375 "/>
<path style=" stroke:none;fill-rule:nonzero;fill:rgb(75.294119%,24.313726%,7.843138%);fill-opacity:1;" d="M 715.339844 185.199219 C 717.441406 186.582031 718.234375 187.398438 719.167969 189.734375 C 719.167969 191.492188 719.167969 193.25 719.167969 195.058594 C 714.777344 195.058594 710.386719 195.058594 705.859375 195.058594 C 706.890625 197.734375 706.890625 197.734375 708.695312 198.589844 C 710.847656 199.136719 712.226562 198.9375 714.386719 198.472656 C 715.035156 198.335938 715.683594 198.199219 716.351562 198.058594 C 716.839844 197.949219 717.332031 197.835938 717.835938 197.722656 C 718.054688 198.820312 718.273438 199.917969 718.5 201.050781 C 715.230469 203.234375 711.902344 203.234375 708.066406 202.714844 C 705.148438 201.394531 703.355469 199.917969 701.871094 197.054688 C 701.175781 193.710938 701.496094 191.191406 702.949219 188.109375 C 706.519531 184.257812 710.410156 183.394531 715.339844 185.199219 Z M 705.859375 190.398438 C 705.859375 190.839844 705.859375 191.277344 705.859375 191.730469 C 709.152344 191.730469 712.445312 191.730469 715.839844 191.730469 C 714.742188 188.984375 714.742188 188.984375 712.515625 187.734375 C 709.441406 187.25 708.039062 188.28125 705.859375 190.398438 Z M 705.859375 190.398438 "/>
<path style=" stroke:none;fill-rule:nonzero;fill:rgb(75.294119%,24.313726%,7.843138%);fill-opacity:1;" d="M 687.109375 185.238281 C 688.683594 186.5 689.617188 187.273438 690.558594 189.066406 C 690.777344 191.042969 691 193.023438 691.226562 195.058594 C 686.832031 195.277344 682.441406 195.5 677.917969 195.726562 C 680.808594 198.679688 680.808594 198.679688 684.570312 199.054688 C 686.398438 198.71875 688.105469 198.246094 689.894531 197.722656 C 689.894531 199.039062 689.894531 200.359375 689.894531 201.714844 C 685.132812 203.164062 681.683594 203.578125 677.046875 201.300781 C 674.824219 199.335938 674.070312 197.910156 673.261719 195.058594 C 673.167969 191.796875 673.820312 188.941406 675.921875 186.40625 C 679.492188 183.996094 683.109375 183.460938 687.109375 185.238281 Z M 677.253906 191.066406 C 677.253906 191.285156 677.253906 191.503906 677.253906 191.730469 C 680.546875 191.730469 683.839844 191.730469 687.234375 191.730469 C 686.851562 188.933594 686.851562 188.933594 684.570312 187.734375 C 680.890625 187.175781 679.574219 188.261719 677.253906 191.066406 Z M 677.253906 191.066406 "/>
<path style=" stroke:none;fill-rule:nonzero;fill:rgb(75.294119%,24.313726%,7.843138%);fill-opacity:1;" d="M 642.328125 185.074219 C 642.65625 185.292969 642.984375 185.511719 643.324219 185.738281 C 643.542969 185.519531 643.765625 185.300781 643.988281 185.074219 C 645.085938 185.074219 646.183594 185.074219 647.316406 185.074219 C 647.316406 190.785156 647.316406 196.496094 647.316406 202.382812 C 645.542969 202.382812 643.769531 202.382812 641.996094 202.382812 C 641.171875 202.53125 640.347656 202.683594 639.5 202.839844 C 636.519531 203.210938 634.628906 202.609375 632.015625 201.050781 C 629.679688 198.652344 629.148438 196.648438 628.980469 193.394531 C 629.070312 190.921875 629.300781 189.316406 630.851562 187.363281 C 634.3125 184.292969 637.875 183.289062 642.328125 185.074219 Z M 634.757812 188.941406 C 633.109375 190.644531 632.734375 191.253906 632.472656 193.601562 C 632.734375 196.273438 633.378906 197.246094 635.339844 199.054688 C 637.757812 199.875 638.828125 199.949219 641.164062 198.886719 C 642.800781 197.738281 642.800781 197.738281 643.988281 195.726562 C 644.269531 193.164062 644.386719 191.667969 642.949219 189.484375 C 640.070312 187.5625 637.75 187.054688 634.757812 188.941406 Z M 634.757812 188.941406 "/>
<path style=" stroke:none;fill-rule:nonzero;fill:rgb(75.294119%,24.313726%,7.843138%);fill-opacity:1;" d="M 758.417969 185.074219 C 759.734375 185.074219 761.050781 185.074219 762.410156 185.074219 C 764.4375 188.984375 766.148438 192.945312 767.730469 197.054688 C 768.058594 196.246094 768.390625 195.4375 768.726562 194.605469 C 769.15625 193.550781 769.589844 192.492188 770.019531 191.4375 C 770.234375 190.90625 770.453125 190.371094 770.675781 189.820312 C 770.882812 189.3125 771.089844 188.804688 771.304688 188.28125 C 771.496094 187.808594 771.6875 187.339844 771.886719 186.851562 C 772.390625 185.738281 772.390625 185.738281 773.054688 185.074219 C 774.382812 185.046875 775.714844 185.042969 777.046875 185.074219 C 774.960938 190.871094 772.753906 196.601562 770.308594 202.257812 C 770.09375 202.769531 769.878906 203.28125 769.65625 203.8125 C 767.605469 208.472656 767.605469 208.472656 765.070312 209.703125 C 763.5 209.898438 763.5 209.898438 761.910156 209.828125 C 761.378906 209.8125 760.847656 209.792969 760.300781 209.773438 C 759.898438 209.753906 759.496094 209.730469 759.082031 209.703125 C 759.082031 208.605469 759.082031 207.507812 759.082031 206.375 C 760.195312 206.273438 760.195312 206.273438 761.328125 206.167969 C 762.125 206.015625 762.921875 205.867188 763.738281 205.710938 C 765.238281 203.882812 765.238281 203.882812 765.011719 202.042969 C 764.144531 198.710938 762.765625 195.660156 761.371094 192.519531 C 760.8125 191.253906 760.257812 189.988281 759.703125 188.722656 C 759.457031 188.164062 759.210938 187.609375 758.957031 187.035156 C 758.417969 185.738281 758.417969 185.738281 758.417969 185.074219 Z M 758.417969 185.074219 "/>
<path style=" stroke:none;fill-rule:nonzero;fill:rgb(75.294119%,24.313726%,7.843138%);fill-opacity:1;" d="M 533.011719 185.199219 C 535.195312 186.605469 536.300781 187.429688 537.546875 189.734375 C 538.070312 193.234375 537.945312 196.121094 536.546875 199.386719 C 534.085938 201.851562 531.660156 202.917969 528.175781 203.132812 C 524.589844 202.90625 522.679688 201.660156 520.25 199.054688 C 518.664062 195.953125 518.566406 193.027344 519.582031 189.734375 C 520.816406 187.570312 522.320312 186.078125 524.488281 184.824219 C 527.589844 184.085938 530.011719 184.078125 533.011719 185.199219 Z M 524.238281 189.066406 C 522.582031 191.554688 522.605469 192.777344 522.910156 195.726562 C 524.214844 198.035156 525.007812 198.863281 527.523438 199.71875 C 529.964844 199.71875 530.980469 199.207031 532.886719 197.722656 C 534.445312 195.382812 534.550781 194.484375 534.21875 191.730469 C 533.269531 189.777344 533.269531 189.777344 531.558594 188.402344 C 528.738281 187.644531 526.664062 187.269531 524.238281 189.066406 Z M 524.238281 189.066406 "/>
<path style=" stroke:none;fill-rule:nonzero;fill:rgb(75.294119%,24.313726%,7.843138%);fill-opacity:1;" d="M 554.84375 177.085938 C 555.941406 177.085938 557.039062 177.085938 558.167969 177.085938 C 558.167969 181.917969 558.167969 186.75 558.167969 191.730469 C 559.265625 191.730469 560.363281 191.730469 561.496094 191.730469 C 561.742188 191.007812 561.742188 191.007812 561.996094 190.273438 C 562.9375 188.152344 563.820312 186.695312 565.488281 185.074219 C 567.648438 184.863281 567.648438 184.863281 569.480469 185.074219 C 569.253906 185.476562 569.03125 185.875 568.796875 186.289062 C 568.5 186.820312 568.203125 187.355469 567.898438 187.902344 C 567.605469 188.425781 567.3125 188.953125 567.011719 189.492188 C 566.246094 190.890625 565.523438 192.296875 564.820312 193.726562 C 565.207031 194.242188 565.589844 194.753906 565.984375 195.28125 C 566.480469 195.949219 566.972656 196.617188 567.484375 197.304688 C 568.222656 198.300781 568.222656 198.300781 568.980469 199.320312 C 570.144531 201.050781 570.144531 201.050781 570.144531 202.382812 C 568.4375 202.757812 568.4375 202.757812 566.152344 202.382812 C 564.324219 200.574219 562.832031 198.585938 561.496094 196.390625 C 561.496094 195.949219 561.496094 195.511719 561.496094 195.058594 C 560.398438 195.058594 559.300781 195.058594 558.167969 195.058594 C 558.167969 197.476562 558.167969 199.890625 558.167969 202.382812 C 557.070312 202.382812 555.972656 202.382812 554.84375 202.382812 C 554.84375 194.035156 554.84375 185.683594 554.84375 177.085938 Z M 554.84375 177.085938 "/>
<path style=" stroke:none;fill-rule:nonzero;fill:rgb(75.294119%,24.313726%,7.843138%);fill-opacity:1;" d="M 398.503906 184.40625 C 401.3125 185.621094 402.558594 186.964844 403.824219 189.734375 C 404.0625 191.917969 404.011719 194.070312 403.949219 196.265625 C 403.933594 197.148438 403.933594 197.148438 403.921875 198.046875 C 403.898438 199.492188 403.863281 200.9375 403.824219 202.382812 C 402.507812 202.382812 401.191406 202.382812 399.832031 202.382812 C 399.824219 202.003906 399.8125 201.628906 399.804688 201.242188 C 399.753906 199.542969 399.6875 197.839844 399.625 196.140625 C 399.609375 195.546875 399.59375 194.957031 399.578125 194.347656 C 399.542969 193.496094 399.542969 193.496094 399.507812 192.628906 C 399.492188 192.105469 399.472656 191.585938 399.453125 191.046875 C 399.269531 189.464844 399.269531 189.464844 397.171875 188.402344 C 395.796875 188.382812 395.796875 188.382812 394.386719 188.652344 C 393.128906 188.855469 393.128906 188.855469 391.847656 189.066406 C 391.195312 191.894531 390.976562 194.707031 390.808594 197.597656 C 390.78125 198.058594 390.753906 198.519531 390.722656 198.996094 C 390.652344 200.125 390.585938 201.253906 390.519531 202.382812 C 389.421875 202.382812 388.324219 202.382812 387.191406 202.382812 C 387.191406 196.671875 387.191406 190.957031 387.191406 185.074219 C 388.964844 185.074219 390.742188 185.074219 392.515625 185.074219 C 394.554688 184.054688 396.25 184.253906 398.503906 184.40625 Z M 398.503906 184.40625 "/>
<path style=" stroke:none;fill-rule:nonzero;fill:rgb(75.294119%,24.313726%,7.843138%);fill-opacity:1;" d="M 450.394531 184.40625 C 454.054688 186.40625 454.054688 186.40625 455.050781 188.402344 C 455.105469 189.464844 455.121094 190.527344 455.117188 191.589844 C 455.113281 192.214844 455.113281 192.84375 455.109375 193.488281 C 455.105469 194.144531 455.097656 194.800781 455.09375 195.476562 C 455.089844 196.136719 455.085938 196.796875 455.082031 197.476562 C 455.074219 199.113281 455.066406 200.746094 455.050781 202.382812 C 453.953125 202.382812 452.855469 202.382812 451.722656 202.382812 C 451.699219 201.539062 451.675781 200.699219 451.648438 199.832031 C 451.605469 198.726562 451.5625 197.621094 451.515625 196.515625 C 451.5 195.960938 451.488281 195.40625 451.472656 194.835938 C 451.4375 194.03125 451.4375 194.03125 451.398438 193.214844 C 451.382812 192.722656 451.363281 192.230469 451.347656 191.726562 C 450.980469 190.035156 450.453125 189.414062 449.0625 188.402344 C 446.683594 188.402344 446.683594 188.402344 444.40625 189.066406 C 443.09375 191.039062 442.898438 191.515625 442.800781 193.734375 C 442.773438 194.238281 442.75 194.742188 442.722656 195.261719 C 442.703125 195.785156 442.679688 196.308594 442.660156 196.847656 C 442.632812 197.378906 442.609375 197.910156 442.582031 198.457031 C 442.519531 199.765625 442.464844 201.074219 442.410156 202.382812 C 441.3125 202.382812 440.214844 202.382812 439.085938 202.382812 C 439.085938 196.671875 439.085938 190.957031 439.085938 185.074219 C 440.636719 185.074219 442.1875 185.074219 443.742188 185.074219 C 445.878906 184.003906 448.078125 184.085938 450.394531 184.40625 Z M 450.394531 184.40625 "/>
<path style=" stroke:none;fill-rule:nonzero;fill:rgb(75.294119%,24.313726%,7.843138%);fill-opacity:1;" d="M 345.28125 185.074219 C 346.378906 185.074219 347.476562 185.074219 348.605469 185.074219 C 348.617188 185.914062 348.625 186.757812 348.632812 187.625 C 348.664062 188.730469 348.699219 189.835938 348.730469 190.941406 C 348.734375 191.496094 348.738281 192.050781 348.742188 192.621094 C 348.8125 195.917969 348.8125 195.917969 350.71875 198.480469 C 352.917969 199.304688 352.917969 199.304688 356.589844 198.386719 C 356.808594 193.992188 357.027344 189.601562 357.253906 185.074219 C 358.570312 185.074219 359.890625 185.074219 361.246094 185.074219 C 361.28125 186.890625 361.308594 188.707031 361.328125 190.523438 C 361.347656 191.292969 361.347656 191.292969 361.363281 192.074219 C 361.394531 195.792969 361.160156 198.4375 358.460938 201.21875 C 356.152344 202.652344 354.652344 203 351.933594 203.046875 C 349.253906 202.15625 347.03125 201.3125 345.28125 199.054688 C 345.054688 197.542969 345.054688 197.542969 345.085938 195.800781 C 345.089844 195.175781 345.097656 194.550781 345.105469 193.910156 C 345.121094 193.257812 345.136719 192.609375 345.15625 191.9375 C 345.164062 191.28125 345.171875 190.621094 345.183594 189.945312 C 345.207031 188.320312 345.238281 186.695312 345.28125 185.074219 Z M 345.28125 185.074219 "/>
<path style=" stroke:none;fill-rule:nonzero;fill:rgb(75.294119%,24.313726%,7.843138%);fill-opacity:1;" d="M 579.082031 184.324219 C 579.84375 184.320312 579.84375 184.320312 580.621094 184.320312 C 582.089844 184.40625 583.371094 184.667969 584.78125 185.074219 C 584.5625 186.171875 584.339844 187.269531 584.113281 188.402344 C 583.601562 188.394531 583.089844 188.386719 582.5625 188.378906 C 581.894531 188.371094 581.226562 188.367188 580.539062 188.359375 C 579.542969 188.347656 579.542969 188.347656 578.527344 188.335938 C 576.808594 188.28125 576.808594 188.28125 575.464844 189.066406 C 575.464844 189.507812 575.464844 189.945312 575.464844 190.398438 C 576.019531 190.566406 576.574219 190.738281 577.140625 190.910156 C 577.867188 191.140625 578.589844 191.371094 579.332031 191.605469 C 580.410156 191.941406 580.410156 191.941406 581.507812 192.285156 C 583.351562 193.023438 584.296875 193.46875 585.445312 195.058594 C 585.765625 197.589844 585.824219 199.09375 584.488281 201.300781 C 581.605469 203.128906 578.566406 203.34375 575.222656 202.785156 C 573.960938 202.472656 572.714844 202.101562 571.472656 201.714844 C 571.695312 200.617188 571.914062 199.519531 572.140625 198.386719 C 572.699219 198.445312 573.261719 198.5 573.839844 198.558594 C 574.570312 198.625 575.296875 198.691406 576.046875 198.761719 C 576.773438 198.832031 577.5 198.902344 578.246094 198.972656 C 580.089844 199.203125 580.089844 199.203125 581.453125 198.386719 C 581.234375 197.730469 581.015625 197.070312 580.789062 196.390625 C 578.976562 195.628906 578.976562 195.628906 576.839844 195.058594 C 572.949219 193.945312 572.949219 193.945312 571.472656 191.730469 C 571.226562 189.773438 571.226562 189.773438 571.472656 187.734375 C 573.652344 184.957031 575.644531 184.3125 579.082031 184.324219 Z M 579.082031 184.324219 "/>
<path style=" stroke:none;fill-rule:nonzero;fill:rgb(75.294119%,24.313726%,7.843138%);fill-opacity:1;" d="M 751.390625 184.324219 C 752.152344 184.320312 752.152344 184.320312 752.925781 184.320312 C 754.394531 184.40625 755.675781 184.667969 757.085938 185.074219 C 756.867188 186.171875 756.648438 187.269531 756.421875 188.402344 C 753.566406 188.402344 750.714844 188.402344 747.773438 188.402344 C 747.773438 189.28125 747.773438 190.160156 747.773438 191.066406 C 748.328125 191.1875 748.878906 191.304688 749.449219 191.429688 C 750.171875 191.597656 750.894531 191.765625 751.640625 191.9375 C 752.71875 192.183594 752.71875 192.183594 753.816406 192.429688 C 755.742188 193.058594 756.59375 193.421875 757.753906 195.058594 C 758.074219 197.589844 758.128906 199.09375 756.796875 201.300781 C 753.988281 203.082031 750.941406 203.386719 747.679688 202.785156 C 746.585938 202.476562 745.515625 202.101562 744.445312 201.714844 C 744.445312 200.617188 744.445312 199.519531 744.445312 198.386719 C 745.007812 198.445312 745.570312 198.5 746.148438 198.558594 C 746.875 198.625 747.605469 198.691406 748.355469 198.761719 C 749.082031 198.832031 749.808594 198.902344 750.554688 198.972656 C 752.398438 199.203125 752.398438 199.203125 753.761719 198.386719 C 753.980469 197.730469 754.199219 197.070312 754.425781 196.390625 C 753.882812 196.277344 753.335938 196.164062 752.773438 196.046875 C 752.054688 195.886719 751.339844 195.722656 750.601562 195.558594 C 749.890625 195.402344 749.179688 195.25 748.449219 195.089844 C 746.226562 194.316406 745.199219 193.597656 743.78125 191.730469 C 743.824219 189.359375 743.941406 187.757812 745.363281 185.820312 C 747.324219 184.464844 749.082031 184.316406 751.390625 184.324219 Z M 751.390625 184.324219 "/>
<path style=" stroke:none;fill-rule:nonzero;fill:rgb(75.294119%,24.313726%,7.843138%);fill-opacity:1;" d="M 480.332031 179.082031 C 481.648438 179.082031 482.964844 179.082031 484.324219 179.082031 C 484.324219 181.058594 484.324219 183.035156 484.324219 185.074219 C 486.078125 185.074219 487.835938 185.074219 489.644531 185.074219 C 489.644531 185.953125 489.644531 186.832031 489.644531 187.734375 C 487.890625 187.734375 486.132812 187.734375 484.324219 187.734375 C 484.542969 191.25 484.761719 194.765625 484.988281 198.386719 C 486.085938 198.605469 487.183594 198.828125 488.316406 199.054688 C 488.972656 199.273438 489.632812 199.492188 490.3125 199.71875 C 490.3125 200.597656 490.3125 201.476562 490.3125 202.382812 C 485.535156 203.273438 485.535156 203.273438 483.074219 202.257812 C 481.515625 200.925781 481.027344 200.300781 480.332031 198.386719 C 480.238281 196.53125 480.207031 194.746094 480.25 192.894531 C 480.253906 192.398438 480.261719 191.902344 480.265625 191.390625 C 480.28125 190.171875 480.304688 188.953125 480.332031 187.734375 C 479.453125 187.734375 478.574219 187.734375 477.671875 187.734375 C 477.671875 186.855469 477.671875 185.976562 477.671875 185.074219 C 478.546875 185.074219 479.425781 185.074219 480.332031 185.074219 C 480.332031 183.097656 480.332031 181.117188 480.332031 179.082031 Z M 480.332031 179.082031 "/>
<path style=" stroke:none;fill-rule:nonzero;fill:rgb(75.294119%,24.313726%,7.843138%);fill-opacity:1;" d="M 336.296875 184.324219 C 336.8125 184.324219 337.328125 184.320312 337.859375 184.320312 C 339.292969 184.40625 339.292969 184.40625 341.289062 185.074219 C 341.289062 186.390625 341.289062 187.710938 341.289062 189.066406 C 340.945312 188.957031 340.601562 188.847656 340.25 188.734375 C 337.164062 188.101562 334.84375 187.9375 332.015625 189.441406 C 330.445312 191.015625 330.445312 191.015625 330.269531 193.394531 C 330.472656 195.714844 330.472656 195.714844 331.726562 197.304688 C 334.328125 199.089844 336.460938 199.160156 339.542969 198.761719 C 340.117188 198.636719 340.695312 198.515625 341.289062 198.386719 C 341.507812 199.484375 341.726562 200.585938 341.953125 201.714844 C 338.4375 202.960938 335.613281 203.417969 331.972656 202.382812 C 329.507812 201.011719 328.21875 200.074219 326.652344 197.722656 C 325.78125 193.707031 325.863281 191.414062 327.984375 187.734375 C 330.625 185.226562 332.683594 184.3125 336.296875 184.324219 Z M 336.296875 184.324219 "/>
<path style=" stroke:none;fill-rule:nonzero;fill:rgb(75.294119%,24.313726%,7.843138%);fill-opacity:1;" d="M 549.230469 184.367188 C 549.984375 184.378906 550.738281 184.394531 551.515625 184.40625 C 551.734375 185.066406 551.957031 185.726562 552.179688 186.40625 C 551.523438 187.394531 551.523438 187.394531 550.851562 188.402344 C 550.046875 188.382812 550.046875 188.382812 549.230469 188.359375 C 547.496094 188.21875 547.496094 188.21875 546.449219 189.371094 C 545.113281 191.828125 545.152344 194.132812 545.070312 196.890625 C 545.046875 197.417969 545.027344 197.945312 545.003906 198.488281 C 544.949219 199.785156 544.90625 201.085938 544.863281 202.382812 C 543.765625 202.382812 542.667969 202.382812 541.535156 202.382812 C 541.535156 196.671875 541.535156 190.957031 541.535156 185.074219 C 543.074219 185.074219 544.609375 185.074219 546.195312 185.074219 C 546.859375 184.40625 546.859375 184.40625 549.230469 184.367188 Z M 549.230469 184.367188 "/>
<path style=" stroke:none;fill-rule:nonzero;fill:rgb(75.294119%,24.313726%,7.843138%);fill-opacity:1;" d="M 375.882812 184.40625 C 375.882812 185.726562 375.882812 187.042969 375.882812 188.402344 C 374.957031 188.339844 374.957031 188.339844 374.011719 188.277344 C 371.945312 188.203125 371.945312 188.203125 370.78125 189.230469 C 369.703125 190.652344 369.617188 191.445312 369.554688 193.214844 C 369.53125 193.75 369.507812 194.285156 369.484375 194.835938 C 369.460938 195.667969 369.460938 195.667969 369.4375 196.515625 C 369.414062 197.078125 369.390625 197.640625 369.367188 198.21875 C 369.3125 199.605469 369.269531 200.996094 369.230469 202.382812 C 368.132812 202.382812 367.035156 202.382812 365.902344 202.382812 C 365.902344 196.671875 365.902344 190.957031 365.902344 185.074219 C 367.21875 185.074219 368.539062 185.074219 369.894531 185.074219 C 371.863281 184.089844 373.714844 184.367188 375.882812 184.40625 Z M 375.882812 184.40625 "/>
<path style=" stroke:none;fill-rule:nonzero;fill:rgb(75.294119%,24.313726%,7.843138%);fill-opacity:1;" d="M 379.210938 185.074219 C 380.308594 185.074219 381.40625 185.074219 382.535156 185.074219 C 382.535156 190.785156 382.535156 196.496094 382.535156 202.382812 C 381.4375 202.382812 380.339844 202.382812 379.210938 202.382812 C 379.210938 196.671875 379.210938 190.957031 379.210938 185.074219 Z M 379.210938 185.074219 "/>
<path style=" stroke:none;fill-rule:nonzero;fill:rgb(75.294119%,24.313726%,7.843138%);fill-opacity:1;" d="M 380.914062 177.707031 C 381.714844 177.730469 381.714844 177.730469 382.535156 177.75 C 382.535156 178.847656 382.535156 179.945312 382.535156 181.078125 C 381.4375 181.296875 380.339844 181.519531 379.210938 181.746094 C 378.953125 180.640625 378.734375 179.53125 378.542969 178.414062 C 379.210938 177.75 379.210938 177.75 380.914062 177.707031 Z M 380.914062 177.707031 "/>
</g>
</svg>
