<?xml version="1.0" encoding="UTF-8"?>
<svg version="1.1" xmlns="http://www.w3.org/2000/svg" width="1024" height="1024">
<path d="M0 0 C6.10479317 -0.20105606 10.27474956 0.43986181 14.953125 4.74609375 C15.5821875 5.33777344 16.21125 5.92945313 16.859375 6.5390625 C24.13925861 13.0992618 33.39588801 15.49663387 42.8359375 17.29296875 C45.234375 18.1640625 45.234375 18.1640625 46.5703125 19.95703125 C47.61947247 23.44394525 47.42791971 26.02138691 46.66015625 29.5625 C44.10544082 34.22398076 39.32484633 36.11898918 34.71484375 38.375 C31.24069559 40.01101543 31.24069559 40.01101543 28.609375 42.2890625 C26.05681241 44.30424349 24.16087875 44.95191526 21.046875 45.7890625 C14.41433924 48.09603146 8.85932544 52.07792011 5.234375 58.1640625 C4.05754764 65.36447261 5.99210673 72.19215486 7.859375 79.1015625 C10.37870993 88.92478847 12.28797613 98.74910235 13.92227173 108.74801636 C17.59137607 131.18798951 21.06279426 150.69997732 35.8581543 168.76513672 C40.99850072 175.08501901 41.60042047 180.30742444 41.9375 188.20703125 C42.00695831 189.65424309 42.00695831 189.65424309 42.07781982 191.13069153 C42.17282229 193.16366811 42.26332296 195.19685944 42.34960938 197.23022461 C42.48437632 200.35159318 42.63974221 203.47148339 42.796875 206.59179688 C42.88665886 208.56765228 42.97524232 210.54356267 43.0625 212.51953125 C43.11029602 213.4559697 43.15809204 214.39240814 43.20733643 215.35722351 C43.24107361 216.22184708 43.27481079 217.08647064 43.30957031 217.97729492 C43.34350891 218.73942795 43.37744751 219.50156097 43.41241455 220.28678894 C43.234375 222.1640625 43.234375 222.1640625 41.234375 224.1640625 C35.66619318 223.59588068 35.66619318 223.59588068 34.234375 222.1640625 C33.96173828 223.32035156 33.96173828 223.32035156 33.68359375 224.5 C33.30654297 226.00433594 33.30654297 226.00433594 32.921875 227.5390625 C32.67824219 228.53679687 32.43460938 229.53453125 32.18359375 230.5625 C31.234375 233.1640625 31.234375 233.1640625 28.234375 235.1640625 C26.296875 235.4296875 26.296875 235.4296875 24.234375 235.4140625 C23.55375 235.41921875 22.873125 235.424375 22.171875 235.4296875 C20.234375 235.1640625 20.234375 235.1640625 17.234375 233.1640625 C16.98945312 233.87433594 16.74453125 234.58460938 16.4921875 235.31640625 C15.07525949 238.52429607 13.22776229 240.93621365 11.109375 243.7265625 C7.4533952 249.13820167 6.62661313 252.39425255 7.06640625 258.80859375 C8.37108225 284.87177241 -0.05504983 318.92308413 -16.765625 339.1640625 C-18.80155013 341.02887213 -20.89864365 342.72361876 -23.06640625 344.4296875 C-27.39742247 348.85031095 -28.73128288 355.03485087 -28.828125 361.0390625 C-26.89498077 366.72478083 -23.22053076 369.06641864 -18.078125 371.7265625 C-13.06755983 374.10752279 -7.94849516 376.19016089 -2.765625 378.1640625 C-2.79785156 377.05417969 -2.83007812 375.94429687 -2.86328125 374.80078125 C-2.8256791 350.3217843 6.56571039 322.30648889 23.59765625 304.5703125 C35.49545272 293.71247157 50.41286427 288.62994084 66.40625 288.97265625 C74.66974478 289.53192592 81.42473383 291.23544706 89.234375 294.1640625 C89.234375 307.6940625 89.234375 321.2240625 89.234375 335.1640625 C83.234375 333.1640625 83.234375 333.1640625 79.671875 331.6015625 C72.95518408 328.79276448 66.08281268 327.99152719 59.109375 330.3515625 C51.42445363 333.65367715 48.08851336 338.15010733 44.6171875 345.62890625 C40.67475236 355.70773054 39.06185365 366.02237477 38.14453125 376.7578125 C38.05951859 377.75251053 37.97450592 378.74720856 37.88691711 379.77204895 C37.09106708 389.80798711 36.89632742 399.81705901 36.91870117 409.88110352 C36.921886 412.86185561 36.89816388 415.84163293 36.87304688 418.82226562 C36.81200291 437.50920392 36.99869695 460.81384822 49.234375 476.1640625 C51.67046293 478.54795166 51.67046293 478.54795166 54.234375 480.1640625 C54.76804687 480.51984375 55.30171875 480.875625 55.8515625 481.2421875 C59.43515771 482.62862761 63.00654021 482.5457081 66.796875 482.5390625 C67.99763672 482.53990845 67.99763672 482.53990845 69.22265625 482.54077148 C76.65436148 482.4036745 82.61883006 480.47183497 89.234375 477.1640625 C89.234375 489.3740625 89.234375 501.5840625 89.234375 514.1640625 C74.86899915 521.34675043 60.78901457 523.66171739 45.0390625 519.12890625 C35.72780671 515.92573051 29.19542984 511.08978204 22.234375 504.1640625 C21.29271484 503.27460937 21.29271484 503.27460937 20.33203125 502.3671875 C-6.47810664 474.88831601 -4.020406 424.37087705 -3.765625 389.1640625 C-4.67634766 389.01598145 -5.58707031 388.86790039 -6.52539062 388.71533203 C-13.69772895 387.49508339 -19.7861662 385.54092572 -26.265625 382.2890625 C-26.92304688 381.96164062 -27.58046875 381.63421875 -28.2578125 381.296875 C-32.88800767 378.87783426 -38.36072992 375.97385265 -40.765625 371.1640625 C-40.86308581 369.16464475 -40.89639471 367.16194689 -40.8984375 365.16015625 C-40.89972656 363.94392578 -40.90101563 362.72769531 -40.90234375 361.47460938 C-40.89847656 360.19650391 -40.89460937 358.91839844 -40.890625 357.6015625 C-40.89449219 356.35052734 -40.89835938 355.09949219 -40.90234375 353.81054688 C-40.89605834 347.83626898 -40.76095094 342.00036185 -39.98828125 336.07495117 C-39.65871196 333.24650943 -39.67043078 330.44595931 -39.703125 327.6015625 C-39.71214844 326.56902344 -39.72117187 325.53648437 -39.73046875 324.47265625 C-39.74207031 323.71082031 -39.75367188 322.94898438 -39.765625 322.1640625 C-40.16652344 322.84210938 -40.56742188 323.52015625 -40.98046875 324.21875 C-44.76480858 330.41442655 -48.86624034 335.78881129 -53.84765625 341.0703125 C-56.57727984 344.05010525 -57.9817566 346.20406223 -58.3984375 350.18359375 C-58.48222656 350.95896484 -58.56601562 351.73433594 -58.65234375 352.53320312 C-58.73097656 353.33951172 -58.80960938 354.14582031 -58.890625 354.9765625 C-58.97699219 355.77126953 -59.06335938 356.56597656 -59.15234375 357.38476562 C-59.38767982 359.64287123 -59.57826166 361.90157169 -59.765625 364.1640625 C-59.88679687 365.21980469 -60.00796875 366.27554687 -60.1328125 367.36328125 C-59.6113993 371.34044364 -57.72512404 373.63245361 -54.765625 376.1640625 C-52.17899386 377.78369679 -49.48810754 379.04845616 -46.703125 380.2890625 C-37.84312096 384.31119742 -37.84312096 384.31119742 -34.765625 388.1640625 C-34.765625 388.8240625 -34.765625 389.4840625 -34.765625 390.1640625 C-32.125625 390.4940625 -29.485625 390.8240625 -26.765625 391.1640625 C-26.765625 433.4040625 -26.765625 475.6440625 -26.765625 519.1640625 C-39.305625 519.1640625 -51.845625 519.1640625 -64.765625 519.1640625 C-64.765625 477.2540625 -64.765625 435.3440625 -64.765625 392.1640625 C-60.145625 392.1640625 -55.525625 392.1640625 -50.765625 392.1640625 C-50.765625 391.5040625 -50.765625 390.8440625 -50.765625 390.1640625 C-51.81556641 389.75800781 -51.81556641 389.75800781 -52.88671875 389.34375 C-55.92828738 388.09740844 -58.87408747 386.73060294 -61.828125 385.2890625 C-62.85035156 384.79664063 -63.87257813 384.30421875 -64.92578125 383.796875 C-68.91938072 381.50069264 -71.29559543 379.57415122 -72.765625 375.1640625 C-72.90583301 373.05109373 -73.01463113 370.93597879 -73.10546875 368.8203125 C-73.59092433 361.41782742 -75.28842904 354.7670811 -77.328125 347.6640625 C-80.9563934 334.21977415 -83.16074706 319.94259953 -79.765625 306.1640625 C-86.76397113 313.16240863 -87.79838082 321.76397172 -88.56689453 331.09716797 C-88.88355946 334.39063886 -89.44033184 337.64626297 -89.953125 340.9140625 C-90.7243763 346.59979884 -90.69263531 351.73299899 -90.06640625 357.421875 C-89.27409888 364.64524868 -89.83296511 371.65836579 -90.640625 378.8515625 C-90.71901611 379.56465576 -90.79740723 380.27774902 -90.87817383 381.01245117 C-91.43078518 385.57162725 -92.39783141 389.77907717 -93.765625 394.1640625 C-94.425625 394.1640625 -95.085625 394.1640625 -95.765625 394.1640625 C-95.93578125 395.48664063 -95.93578125 395.48664063 -96.109375 396.8359375 C-98.28405614 407.86467758 -106.67772308 416.73063296 -114.890625 423.9140625 C-117.09582288 426.02200519 -117.09582288 426.02200519 -116.52661133 428.84130859 C-115.69092634 432.49022508 -114.6371331 436.02706215 -113.46484375 439.578125 C-113.23235428 440.29358994 -112.99986481 441.00905487 -112.7603302 441.74620056 C-111.99559318 444.09525961 -111.2245112 446.44217933 -110.453125 448.7890625 C-109.91641918 450.43212947 -109.37996464 452.07527853 -108.84375 453.71850586 C-104.07629208 468.30504152 -99.22928496 482.86536422 -94.359375 497.41796875 C-94.13639236 498.08521973 -93.91340973 498.7524707 -93.68367004 499.43994141 C-92.64170439 502.55617282 -91.59348128 505.67004208 -90.53515625 508.78076172 C-90.16777344 509.86502441 -89.80039062 510.94928711 -89.421875 512.06640625 C-88.93944336 513.47974243 -88.93944336 513.47974243 -88.44726562 514.92163086 C-87.765625 517.1640625 -87.765625 517.1640625 -87.765625 519.1640625 C-101.295625 519.1640625 -114.825625 519.1640625 -128.765625 519.1640625 C-129.81621094 515.87953125 -130.86679687 512.595 -131.94921875 509.2109375 C-132.63279263 507.07421239 -133.31638386 504.93749284 -134 502.80078125 C-135.47047448 498.20456205 -136.94045776 493.60818613 -138.41015625 489.01171875 C-143.10247126 474.33971381 -143.10247126 474.33971381 -147.83203125 459.6796875 C-148.15656532 458.67672638 -148.15656532 458.67672638 -148.48765564 457.65350342 C-149.4472338 454.6881124 -150.40941431 451.72362677 -151.37670898 448.76074219 C-151.70098877 447.75946289 -152.02526855 446.75818359 -152.359375 445.7265625 C-152.63458984 444.88222656 -152.90980469 444.03789063 -153.19335938 443.16796875 C-153.765625 441.1640625 -153.765625 441.1640625 -153.765625 439.1640625 C-156.735625 439.1640625 -159.705625 439.1640625 -162.765625 439.1640625 C-162.765625 465.5640625 -162.765625 491.9640625 -162.765625 519.1640625 C-175.635625 519.1640625 -188.505625 519.1640625 -201.765625 519.1640625 C-201.765625 443.9240625 -201.765625 368.6840625 -201.765625 291.1640625 C-127.33609767 291.1640625 -127.33609767 291.1640625 -107.890625 309.6015625 C-99.765625 318.25517696 -99.765625 318.25517696 -99.765625 323.1640625 C-99.105625 323.1640625 -98.445625 323.1640625 -97.765625 323.1640625 C-97.81589844 322.21789062 -97.86617188 321.27171875 -97.91796875 320.296875 C-97.9067883 315.34020851 -96.64211735 310.79087931 -95.328125 306.0390625 C-94.92823364 304.57956177 -94.92823364 304.57956177 -94.52026367 303.09057617 C-92.67019249 296.6317942 -90.36201157 290.58315239 -87.578125 284.4765625 C-78.40731801 264.25758419 -72.89536055 242.25464021 -66.6965332 220.98754883 C-63.92234138 211.52152263 -60.88809176 202.1451855 -57.73388672 192.79907227 C-50.76094825 171.68107486 -52.12901645 150.40837672 -55.82421875 128.75390625 C-56.00952148 127.66770996 -56.19482422 126.58151367 -56.38574219 125.46240234 C-56.75127847 123.37771307 -57.13226956 121.29564521 -57.53222656 119.21728516 C-59.84179989 106.24896667 -57.64646719 94.38822612 -54.44195557 81.83370972 C-50.52451562 66.41743643 -47.83644158 51.16954476 -46.29296875 35.33203125 C-44.83231238 20.74238038 -44.83231238 20.74238038 -40.765625 15.1640625 C-40.3325 14.55433594 -39.899375 13.94460938 -39.453125 13.31640625 C-33.60989979 5.83771312 -27.24268431 2.74538276 -17.9140625 1.5 C-16.35558594 1.33371094 -16.35558594 1.33371094 -14.765625 1.1640625 C-13.74726563 1.05320312 -12.72890625 0.94234375 -11.6796875 0.828125 C-7.7900753 0.45816189 -3.89971499 0.23133902 0 0 Z M-161.765625 329.1640625 C-161.765625 353.9140625 -161.765625 378.6640625 -161.765625 404.1640625 C-151.591068 404.1640625 -145.91285662 403.09973939 -138.59375 396.328125 C-128.5656526 384.45725757 -129.89159585 367.6954074 -130.765625 353.1640625 C-131.79162756 345.18169208 -135.43547852 338.19913121 -141.765625 333.1640625 C-148.78208793 329.01314662 -153.18676879 329.1640625 -161.765625 329.1640625 Z " fill="#CB7E1C" transform="translate(522.765625,483.8359375)"/>
<path d="M0 0 C12.87 0 25.74 0 39 0 C39.01458252 5.37531006 39.02916504 10.75062012 39.04418945 16.28881836 C39.09451094 34.04253571 39.16095171 51.79616565 39.23571491 69.5497961 C39.28065278 80.31451882 39.32007213 91.07920859 39.34643555 101.84399414 C39.36943184 111.22816003 39.4028482 120.61222151 39.44870156 129.99630457 C39.47261168 134.96367183 39.49135498 139.93093583 39.49761391 144.8983593 C39.50367472 149.57775104 39.52371067 154.25687864 39.55427551 158.93617249 C39.56303975 160.64974697 39.56678167 162.363356 39.56500816 164.07695198 C39.28320719 178.37072084 39.28320719 178.37072084 45.375 190.9375 C49.81227333 194.42392905 53.29878178 195.44245422 59.015625 195.23828125 C63.01497923 194.75804383 65.72992538 193.43543059 68.41015625 190.40625 C75.43646394 180.40963732 74.28154225 167.53804097 74.22705078 155.87036133 C74.22648565 154.16432705 74.22680521 152.45829229 74.22793579 150.7522583 C74.22850634 146.1517734 74.21680063 141.55139418 74.20278788 136.95093369 C74.19023049 132.13165726 74.18910609 127.31237804 74.18673706 122.49308777 C74.18053695 113.38090252 74.16414612 104.26876563 74.14403808 95.15660161 C74.12163322 84.77686519 74.11067414 74.39712638 74.10064721 64.01737177 C74.07977851 42.67821492 74.04312073 21.3391243 74 0 C87.2 0 100.4 0 114 0 C114.02289773 15.5035226 114.0411779 31.00703378 114.05181217 46.51056862 C114.0568891 53.71505991 114.06379314 60.91953954 114.07543945 68.12402344 C114.11914176 95.82122874 114.15172715 123.51754958 113.62109375 151.2109375 C113.60583208 152.14092182 113.59057041 153.07090614 113.57484627 154.02907181 C113.1864028 176.67928461 111.10555589 199.58797794 94.8125 216.9375 C89.40644036 222.0181607 83.88941211 225.31011001 77 228 C75.74509766 228.50660156 75.74509766 228.50660156 74.46484375 229.0234375 C61.42802363 233.41606005 45.56233398 232.28366156 33 227 C19.19683429 219.95574877 10.30277171 209.16792949 4.875 194.76171875 C0.25741138 180.18745466 -0.15019367 165.56532781 -0.11352539 150.42114258 C-0.1132428 148.7742208 -0.11340266 147.1272989 -0.1139679 145.4803772 C-0.11425306 141.0410763 -0.10840199 136.60180281 -0.10139394 132.16250825 C-0.09511339 127.51139101 -0.0945529 122.86027304 -0.09336853 118.20915222 C-0.09026902 109.41572786 -0.08207434 100.62231604 -0.07201904 91.82889718 C-0.06081491 81.81190573 -0.05533664 71.79491366 -0.05032361 61.7779175 C-0.03989049 41.1852698 -0.02156228 20.59263927 0 0 Z " fill="#7A3717" transform="translate(179,775)"/>
<path d="M0 0 C13.86 0 27.72 0 42 0 C43.50646664 4.51939991 44.58921453 8.54286865 45.46640015 13.17919922 C45.60004396 13.87934143 45.73368778 14.57948364 45.8713814 15.30084229 C46.31583026 17.6347261 46.75434525 19.96968413 47.19287109 22.3046875 C47.51144003 23.98420841 47.83037343 25.66366022 48.14964294 27.3430481 C49.01509779 31.90116963 49.87538905 36.4602521 50.73472166 41.01953125 C51.63882615 45.81174623 52.5475432 50.60308649 53.45571899 55.39453125 C54.9833136 63.45749077 56.50785956 71.52102168 58.03027344 79.58496094 C60.16365078 90.88501797 62.30265747 102.18400389 64.44274402 113.4827919 C65.93648169 121.37027177 67.42887545 129.25800601 68.92100573 137.1457901 C69.27951428 139.04095301 69.63805456 140.93610992 69.99662733 142.83126068 C72.34033339 155.21910898 74.67797548 167.60806796 77 180 C77.22889168 181.22025879 77.45778336 182.44051758 77.69361115 183.69775391 C78.26940787 186.77692783 78.84044081 189.85692585 79.40869141 192.9375 C79.56234854 193.75879395 79.71600567 194.58008789 79.87431908 195.42626953 C80.82495395 200.6301811 81.4125087 205.7125783 82 211 C82.99 216.94 83.98 222.88 85 229 C72.46 229 59.92 229 47 229 C44.75 220 44.75 220 44.22216797 216.78710938 C44.10059326 216.05717773 43.97901855 215.32724609 43.85375977 214.57519531 C43.73444092 213.83881836 43.61512207 213.10244141 43.4921875 212.34375 C43.37625244 211.64411133 43.26031738 210.94447266 43.14086914 210.22363281 C42.71532301 207.64967946 42.29548096 205.07478565 41.875 202.5 C40.92625 196.725 39.9775 190.95 39 185 C26.46 184.67 13.92 184.34 1 184 C0.67 187.96 0.34 191.92 0 196 C-0.3508689 198.63244006 -0.73214627 201.26117452 -1.15625 203.8828125 C-1.2634436 204.54916718 -1.37063721 205.21552185 -1.4810791 205.90206909 C-1.70409482 207.28175049 -1.92930451 208.66107908 -2.15673828 210.04003906 C-2.50509727 212.15596067 -2.84477929 214.27315617 -3.18359375 216.390625 C-4.86208708 226.72417415 -4.86208708 226.72417415 -6 229 C-17.88 229 -29.76 229 -42 229 C-40.87522871 216.62751581 -40.87522871 216.62751581 -39.90844727 211.66503906 C-39.69474991 210.55308167 -39.48105255 209.44112427 -39.26087952 208.29547119 C-39.03170334 207.13062195 -38.80252716 205.96577271 -38.56640625 204.765625 C-38.32840805 203.52939392 -38.09040985 202.29316284 -37.84519958 201.01947021 C-37.08937661 197.09530995 -36.32671723 193.17253092 -35.5625 189.25 C-34.80191804 185.34174913 -34.04377726 181.43304579 -33.29051208 177.52337646 C-32.82383536 175.10155485 -32.35331378 172.6804694 -31.87806702 170.26031494 C-30.77056919 164.51691068 -29.81580853 158.79480396 -29.09179688 152.98986816 C-28.10624223 145.37484457 -26.75834078 137.85053383 -25.31030273 130.30957031 C-25.0452781 128.91329392 -24.78061021 127.51694978 -24.51626587 126.12054443 C-23.80727138 122.38096175 -23.09322774 118.6423605 -22.3780582 114.90395451 C-21.62707499 110.97414885 -20.88049781 107.04350592 -20.13331604 103.11297607 C-18.88115371 96.52953269 -17.62582894 89.94669877 -16.3684082 83.36425781 C-14.91502634 75.75585273 -13.46601769 68.14662506 -12.01944965 60.53692174 C-10.62362265 53.19436247 -9.22543128 45.85225567 -7.82591438 38.51039886 C-7.23158848 35.39256687 -6.63796767 32.27460185 -6.04488945 29.15653229 C-5.34833405 25.495289 -4.64967112 21.83445399 -3.94935989 18.17392731 C-3.57009118 16.1889257 -3.19284797 14.20353742 -2.81565857 12.21813965 C-2.58999207 11.04088318 -2.36432556 9.86362671 -2.13182068 8.6506958 C-1.93623282 7.62578663 -1.74064497 6.60087746 -1.53913021 5.54491043 C-1 3 -1 3 0 0 Z M20 76 C18.56104954 84.64858231 17.12643765 93.29786988 15.69733429 101.94808483 C15.03358429 105.96485104 14.36835172 109.98135988 13.69970703 113.99731445 C13.05428887 117.8741068 12.4127965 121.75153026 11.77400208 125.62941933 C11.52980274 127.10758852 11.28419815 128.58552628 11.03715515 130.06322289 C10.69095051 132.13554452 10.3497855 134.20863833 10.00976562 136.28198242 C9.81435181 137.46112717 9.61893799 138.64027191 9.41760254 139.85514832 C8.89030518 143.29733916 8.89030518 143.29733916 9 148 C16.59 148 24.18 148 32 148 C30.26768659 132.92316238 27.81064487 117.97694671 25.375 103 C24.94993864 100.37509384 24.52577886 97.75004297 24.1015625 95.125 C23.07069039 88.74951417 22.03662625 82.37455262 21 76 C20.67 76 20.34 76 20 76 Z " fill="#CA7D1B" transform="translate(875,774)"/>
<path d="M0 0 C14.19 0 28.38 0 43 0 C56.81168526 71.82862204 56.81168526 71.82862204 61.7427063 97.98071289 C62.11953851 99.9775139 62.49751058 101.97410017 62.87667847 103.97045898 C63.39639943 106.70885323 63.91175206 109.44803245 64.42578125 112.1875 C64.57304657 112.95928589 64.72031189 113.73107178 64.87203979 114.52624512 C65.53133905 118.06701888 66.08259089 121.5767983 66.43447876 125.16191101 C66.96660252 130.05466692 67.8296133 134.84938956 68.76586914 139.67895508 C68.94157944 140.60043335 69.11728973 141.52191162 69.29832458 142.47131348 C69.67711318 144.45547421 70.05747065 146.43933597 70.43925667 148.42292213 C71.04332511 151.56198097 71.64300172 154.70185121 72.24156189 157.84196472 C73.72752848 165.632766 75.22077659 173.42216783 76.71417236 181.21154785 C77.97930698 187.81162039 79.24150455 194.41224089 80.4996624 201.01364708 C81.09057868 204.10747557 81.68585235 207.20044549 82.28126526 210.29341125 C82.64223771 212.1849049 83.00300243 214.07643821 83.36352539 215.96801758 C83.53026764 216.82781723 83.69700989 217.68761688 83.86880493 218.57347107 C84.01881454 219.36530792 84.16882416 220.15714478 84.32337952 220.97297668 C84.45481889 221.65816281 84.58625826 222.34334894 84.72168064 223.04929829 C85 225 85 225 85 229 C72.46 229 59.92 229 47 229 C45.99912216 223.39559472 45.00087369 217.79085113 44.00927734 212.18481445 C43.67129784 210.27861651 43.33179346 208.37268827 42.99072266 206.46704102 C42.50019758 203.72481991 42.01519928 200.98166951 41.53125 198.23828125 C41.37813354 197.38913651 41.22501709 196.53999176 41.06726074 195.66511536 C40.92711548 194.86466293 40.78697021 194.06421051 40.64257812 193.23950195 C40.51822388 192.54000931 40.39386963 191.84051666 40.26574707 191.11982727 C40 189 40 189 40 184 C27.46 184.33 14.92 184.66 2 185 C-0.31 199.52 -2.62 214.04 -5 229 C-17.21 229 -29.42 229 -42 229 C-40.87505398 218.87548579 -40.87505398 218.87548579 -40.0892334 214.77101135 C-39.91260666 213.83911987 -39.73597992 212.90722839 -39.55400085 211.94709778 C-39.36280167 210.95723373 -39.17160248 209.96736969 -38.97460938 208.94750977 C-38.77124466 207.87961212 -38.56787994 206.81171448 -38.35835266 205.7114563 C-37.91898031 203.40646172 -37.47805221 201.10176324 -37.03572083 198.79733467 C-36.3346849 195.14416711 -35.63813121 191.49016994 -34.94274902 187.83592224 C-33.2152132 178.7621385 -31.48108539 169.68961693 -29.74517822 160.61743164 C-28.27672497 152.94255205 -26.81180474 145.26701271 -25.35176086 137.59052849 C-24.66772857 134.00163063 -23.97864128 130.41372696 -23.28942871 126.82582092 C-22.8678145 124.61122658 -22.44645512 122.3965837 -22.02539062 120.18188477 C-21.83419144 119.19404495 -21.64299225 118.20620514 -21.44599915 117.18843079 C-20.45423888 111.94002085 -19.73988808 106.75567795 -19.25887299 101.43754101 C-18.82137062 97.31803061 -18.03392343 93.27296095 -17.25 89.20751953 C-16.98884399 87.82508308 -16.98884399 87.82508308 -16.72241211 86.41471863 C-16.15242868 83.40327796 -15.57631765 80.39304679 -15 77.3828125 C-14.59991579 75.27682936 -14.20018179 73.17077966 -13.80078125 71.06466675 C-12.96615783 66.66825958 -12.12874921 62.27239601 -11.2890625 57.87695312 C-10.21259751 52.24194886 -9.14092524 46.60604728 -8.07104492 40.96978951 C-7.04896239 35.58632607 -6.02460118 30.20329704 -5 24.8203125 C-4.80486816 23.79419987 -4.60973633 22.76808723 -4.40869141 21.71088028 C-3.85704794 18.81238374 -3.30379503 15.9141994 -2.75 13.01611328 C-2.58685303 12.15788467 -2.42370605 11.29965607 -2.25561523 10.41542053 C-2.02853882 9.22983299 -2.02853882 9.22983299 -1.796875 8.02029419 C-1.60109863 6.99446322 -1.60109863 6.99446322 -1.40136719 5.9479084 C-0.99029451 3.95289747 -0.49402604 1.97610416 0 0 Z M20 78 C18.5609101 86.38776769 17.12628808 94.77628214 15.69733429 103.16578197 C15.0336464 107.06150181 14.36843337 110.95694826 13.69970703 114.85180664 C13.05418514 118.61185441 12.412706 122.37257165 11.77400208 126.13378334 C11.52984415 127.56730951 11.28424036 129.00059021 11.03715515 130.43361473 C10.69084382 132.44360932 10.35018756 134.45457575 10.00976562 136.46557617 C9.81435181 137.60919113 9.61893799 138.75280609 9.41760254 139.93107605 C8.88763999 143.3095227 8.88763999 143.3095227 9 148 C16.92 148 24.84 148 33 148 C31.60897795 139.16704471 30.2110792 130.33525411 28.80095863 121.50532722 C28.14649755 117.40542765 27.49509214 113.30509053 26.85058594 109.20361328 C26.22877578 105.24729295 25.59904937 101.29230786 24.96375656 97.33813095 C24.7224889 95.82747322 24.48410293 94.3163524 24.24861526 92.80478287 C23.91891031 90.69164514 23.57910179 88.58036928 23.23681641 86.46923828 C23.04584381 85.26566681 22.85487122 84.06209534 22.65811157 82.822052 C22.23444541 79.88241946 22.23444541 79.88241946 20 78 Z " fill="#793716" transform="translate(663,774)"/>
<path d="M0 0 C0 13.86 0 27.72 0 42 C-4.95 39.69 -9.9 37.38 -15 35 C-23.08150277 32.30616574 -33.65397302 30.95887458 -41.75 34.625 C-46.1353115 37.34524841 -48.38995493 41.16986478 -50 46 C-50.96707939 56.55860451 -48.96753647 63.4009689 -42.5 71.6875 C-41.01321117 73.46943986 -39.51174106 75.23917926 -38 77 C-37.06620343 78.09618142 -36.1326206 79.19254495 -35.19921875 80.2890625 C-31.23650203 84.93013487 -27.26177068 89.56039743 -23.2421875 94.15234375 C-3.01845171 117.41533622 10.75715201 139.3529601 9 171 C7.16358162 188.48805916 0.11656892 202.53858851 -13.30859375 213.99609375 C-26.81404822 224.05167886 -42.45012117 226.51660167 -58.87890625 224.53125 C-68.7518311 223.00945153 -77.78817267 219.78517905 -87 216 C-88.21909828 207.48551041 -88.11268452 199.01526523 -88.0625 190.4375 C-88.0574746 188.93685045 -88.05291353 187.43619928 -88.04882812 185.93554688 C-88.03790576 182.29033023 -88.02069856 178.64517578 -88 175 C-83.14504409 176.90728556 -78.46829662 179.13108055 -73.79101562 181.43359375 C-66.70749173 184.81915491 -59.7435954 186.2900746 -51.9375 186.8125 C-51.26912109 186.87630859 -50.60074219 186.94011719 -49.91210938 187.00585938 C-44.68197632 187.36673347 -41.52141535 186.41216948 -37 184 C-31.92242622 178.09903588 -30.73380675 171.80200117 -31 164.25 C-32.83308067 147.99668471 -45.97369901 135.11950501 -56.6015625 123.63671875 C-60.59544655 119.24604817 -64.30712243 114.64445524 -68 110 C-68.41282227 109.48679199 -68.82564453 108.97358398 -69.25097656 108.44482422 C-84.97859462 88.8479021 -92.85483315 69.43193579 -91 44 C-88.86757112 28.05012548 -81.94227081 14.38175258 -69.5859375 3.96484375 C-50.30176468 -10.45237117 -21.15711144 -10.57855572 0 0 Z " fill="#CB7D1B" transform="translate(153,780)"/>
<path d="M0 0 C31.68 0 63.36 0 96 0 C96 12.54 96 25.08 96 38 C86.76 38 77.52 38 68 38 C68.00523682 40.66457275 68.01047363 43.32914551 68.01586914 46.07446289 C68.03919272 58.73713403 68.05313285 71.39981131 68.0625 84.0625 C68.06335602 85.21138325 68.06421204 86.36026649 68.06509399 87.54396439 C68.0877398 122.01160541 67.93310477 156.47250471 67.5 190.9375 C67.48804218 191.88966022 67.47608437 192.84182045 67.46376419 193.82283401 C67.3197511 205.21538963 67.16171626 216.60766737 67 228 C54.46 228 41.92 228 29 228 C28.82675313 213.58338579 28.65770864 199.16678477 28.5 184.75 C28.48218412 183.12217464 28.48218412 183.12217464 28.46400833 181.46146393 C28.08914027 146.93208787 27.90819886 112.40639175 27.9375 77.875 C27.93835602 76.8587706 27.93921204 75.8425412 27.94009399 74.79551697 C27.95121711 62.53032255 27.97175126 50.26516635 28 38 C18.76 38 9.52 38 0 38 C0 25.46 0 12.92 0 0 Z " fill="#CC7E1B" transform="translate(740,775)"/>
<path d="M0 0 C-1.5888492 12.34969153 -10.03237116 21.79711572 -19.125 29.75 C-21.33019788 31.85794269 -21.33019788 31.85794269 -20.76098633 34.67724609 C-19.92530134 38.32616258 -18.8715081 41.86299965 -17.69921875 45.4140625 C-17.46672928 46.12952744 -17.23423981 46.84499237 -16.9947052 47.58213806 C-16.22996818 49.93119711 -15.4588862 52.27811683 -14.6875 54.625 C-14.15079418 56.26806697 -13.61433964 57.91121603 -13.078125 59.55444336 C-8.31066708 74.14097902 -3.46365996 88.70130172 1.40625 103.25390625 C1.62923264 103.92115723 1.85221527 104.5884082 2.08195496 105.27587891 C3.12392061 108.39211032 4.17214372 111.50597958 5.23046875 114.61669922 C5.78154297 116.24309326 5.78154297 116.24309326 6.34375 117.90234375 C6.82618164 119.31567993 6.82618164 119.31567993 7.31835938 120.75756836 C8 123 8 123 8 125 C-5.53 125 -19.06 125 -33 125 C-34.05058594 121.71546875 -35.10117187 118.4309375 -36.18359375 115.046875 C-36.86716763 112.91014989 -37.55075886 110.77343034 -38.234375 108.63671875 C-39.70484948 104.04049955 -41.17483276 99.44412363 -42.64453125 94.84765625 C-47.33684626 80.17565131 -47.33684626 80.17565131 -52.06640625 65.515625 C-52.2827623 64.84698425 -52.49911835 64.17834351 -52.72203064 63.48944092 C-53.6816088 60.5240499 -54.64378931 57.55956427 -55.61108398 54.59667969 C-55.93536377 53.59540039 -56.25964355 52.59412109 -56.59375 51.5625 C-56.86896484 50.71816406 -57.14417969 49.87382813 -57.42773438 49.00390625 C-58 47 -58 47 -58 45 C-60.97 45 -63.94 45 -67 45 C-67 71.4 -67 97.8 -67 125 C-79.87 125 -92.74 125 -106 125 C-106 89.03 -106 53.06 -106 16 C-71.63392857 8.63584184 -71.63392857 8.63584184 -59.90625 9.0546875 C-55.75189832 8.97651422 -51.06183267 8.06183267 -48 5 C-45.78199743 4.63957695 -43.55426617 4.33877643 -41.32421875 4.0625 C-40.64382034 3.97750244 -39.96342194 3.89250488 -39.2624054 3.80493164 C-37.81247847 3.62474173 -36.36228752 3.44666598 -34.91186523 3.27050781 C-32.73420754 3.00568016 -30.55750826 2.73391821 -28.38085938 2.4609375 C-8.55503106 0 -8.55503106 0 0 0 Z " fill="#7A3717" transform="translate(427,878)"/>
<path d="M0 0 C14.19 0 28.38 0 43 0 C45.14715246 11.1664145 47.2935178 22.33297681 49.4375 33.5 C49.59607735 34.32595043 49.75465469 35.15190086 49.91803741 36.0028801 C55.35428831 64.32127026 60.7277653 92.65055045 66 121 C57.8927829 120.3742125 49.98480792 119.00738014 42 117.5 C40.16115234 117.16162109 40.16115234 117.16162109 38.28515625 116.81640625 C29.26333774 115.13166887 29.26333774 115.13166887 27 114 C26.25390625 111.2890625 26.25390625 111.2890625 25.5625 107.625 C25.43834717 106.97394287 25.31419434 106.32288574 25.1862793 105.65209961 C23.59600205 97.13439522 22.31268421 88.56370174 21 80 C19.02 90.56 17.04 101.12 15 112 C6.5362375 111.02072169 -1.92599563 110.03766912 -10.375 108.9375 C-12.18097656 108.70353516 -12.18097656 108.70353516 -14.0234375 108.46484375 C-17 108 -17 108 -20 107 C-16.69045892 87.38993364 -13.01818943 67.84928288 -9.34448242 48.30493164 C-8.47514051 43.67996249 -7.6082907 39.05453021 -6.74215412 34.42895985 C-6.06962664 30.83863081 -5.39592594 27.24852272 -4.72185326 23.65848351 C-4.40136177 21.95091769 -4.08120921 20.24328823 -3.76140785 18.53559303 C-3.31778542 16.16779239 -2.87260831 13.8002893 -2.42700195 11.43286133 C-2.29662033 10.73531738 -2.16623871 10.03777344 -2.03190613 9.3190918 C-1.43951928 6.18032311 -0.77528267 3.10113069 0 0 Z " fill="#CA7D1B" transform="translate(663,774)"/>
<path d="M0 0 C3.31247947 -0.03004202 6.62492255 -0.0471335 9.9375 -0.0625 C10.84435547 -0.07087891 11.75121094 -0.07925781 12.68554688 -0.08789062 C21.48293855 -0.11812221 30.22580912 0.42328957 39 1 C39.01458252 2.28874023 39.02916504 3.57748047 39.04418945 4.90527344 C39.10313721 9.78866318 39.18034214 14.67163694 39.26245117 19.5546875 C39.29525511 21.64901874 39.32341767 23.74342897 39.34643555 25.83789062 C39.28272532 58.13947301 39.28272532 58.13947301 52 87 C54.43608793 89.38388916 54.43608793 89.38388916 57 91 C57.53367187 91.35578125 58.06734375 91.7115625 58.6171875 92.078125 C62.20078271 93.46456511 65.77216521 93.3816456 69.5625 93.375 C70.76326172 93.37584595 70.76326172 93.37584595 71.98828125 93.37670898 C79.41998648 93.239612 85.38445506 91.30777247 92 88 C92 100.21 92 112.42 92 125 C77.63462415 132.18268793 63.55463957 134.49765489 47.8046875 129.96484375 C38.49343171 126.76166801 31.96105484 121.92571954 25 115 C24.37222656 114.40703125 23.74445312 113.8140625 23.09765625 113.203125 C0.05266844 89.5833189 -1.00547325 47.15040058 -1.125 16.3125 C-1.13200928 15.0745166 -1.13200928 15.0745166 -1.13916016 13.81152344 C-1.12663547 9.10417007 -0.78312776 4.64282884 0 0 Z " fill="#7A3717" transform="translate(520,873)"/>
<path d="M0 0 C12.87 0 25.74 0 39 0 C39 48.51 39 97.02 39 147 C9 158 9 158 0 161 C0 107.87 0 54.74 0 0 Z " fill="#CC7E1B" transform="translate(179,775)"/>
<path d="M0 0 C13.2 0 26.4 0 40 0 C40 41.25 40 82.5 40 125 C30.99472689 128.37697742 30.99472689 128.37697742 26.50390625 129.53515625 C25.04694336 129.91317383 25.04694336 129.91317383 23.56054688 130.29882812 C22.07651367 130.6768457 22.07651367 130.6768457 20.5625 131.0625 C19.57701172 131.31837891 18.59152344 131.57425781 17.57617188 131.83789062 C11.73313076 133.34414841 5.89750052 134.68944433 0 136 C0 91.12 0 46.24 0 0 Z " fill="#CA7D1B" transform="translate(253,775)"/>
<path d="M0 0 C8.29125 -0.061875 16.5825 -0.12375 25.125 -0.1875 C27.73293457 -0.21481201 30.34086914 -0.24212402 33.02783203 -0.27026367 C35.10448748 -0.27902893 37.1811481 -0.28667277 39.2578125 -0.29296875 C40.32829834 -0.30831665 41.39878418 -0.32366455 42.50170898 -0.33947754 C49.70906974 -0.34200289 54.19227241 0.45345637 59.6875 5.4375 C60.450625 6.283125 61.21375 7.12875 62 8 C62.556875 8.598125 63.11375 9.19625 63.6875 9.8125 C67.74614221 16.57690368 67.92990236 25.07442346 66.5 32.6484375 C64.67735899 39.54547678 62.0416502 43.9722332 56 48 C57.6396875 48.61875 57.6396875 48.61875 59.3125 49.25 C62.5218407 50.62450551 64.24837663 51.88600289 66 55 C66.91035504 57.73106511 67.12215713 59.29893239 67.11352539 62.10424805 C67.11341209 63.3351844 67.11341209 63.3351844 67.11329651 64.59098816 C67.10813522 65.47232925 67.10297394 66.35367035 67.09765625 67.26171875 C67.0962413 68.16751175 67.09482635 69.07330475 67.09336853 70.00654602 C67.08777001 72.90023091 67.07521781 75.79383849 67.0625 78.6875 C67.05748481 80.64908742 67.05292193 82.61067606 67.04882812 84.57226562 C67.03865187 89.38156418 67.01907613 94.19069553 67 99 C59.41 99 51.82 99 44 99 C43.94392578 95.54853516 43.94392578 95.54853516 43.88671875 92.02734375 C43.84040572 89.77993683 43.78920795 87.53269004 43.73754883 85.28540039 C43.70445223 83.73276638 43.67637349 82.18001647 43.65356445 80.62719727 C43.61973476 78.3850806 43.56741013 76.14401153 43.51171875 73.90234375 C43.50532883 73.21663803 43.4989389 72.53093231 43.49235535 71.82444763 C43.34212141 66.81398722 42.31019581 63.36930559 40 59 C35.65300102 55.7452161 35.65300102 55.7452161 23 56 C23 70.19 23 84.38 23 99 C15.41 99 7.82 99 0 99 C0 66.33 0 33.66 0 0 Z M23 12 C23 22.56 23 33.12 23 44 C32.33221743 44.28506676 32.33221743 44.28506676 40 41 C44.48471036 36.36579929 44.2843792 30.90625265 44.21875 24.76171875 C43.90636603 20.81787117 42.99578775 18.42135043 41 15 C35.96666667 10.6 35.96666667 10.6 23 12 Z " fill="#CD7F1C" transform="translate(386,70)"/>
<path d="M0 0 C8.29125 -0.061875 16.5825 -0.12375 25.125 -0.1875 C27.73293457 -0.21481201 30.34086914 -0.24212402 33.02783203 -0.27026367 C35.10448748 -0.27902893 37.1811481 -0.28667277 39.2578125 -0.29296875 C40.32829834 -0.30831665 41.39878418 -0.32366455 42.50170898 -0.33947754 C49.70906974 -0.34200289 54.19227241 0.45345637 59.6875 5.4375 C60.450625 6.283125 61.21375 7.12875 62 8 C62.556875 8.598125 63.11375 9.19625 63.6875 9.8125 C67.93436691 16.89061151 67.30673759 25.37662487 67.30078125 33.3359375 C67.30506638 34.61046783 67.3093515 35.88499817 67.31376648 37.19815063 C67.31949315 39.88614824 67.32096529 42.57375976 67.31567383 45.26171875 C67.30988688 48.67977322 67.32680916 52.09728444 67.3500185 55.51524925 C67.36842846 58.80964035 67.36456786 62.10400433 67.36328125 65.3984375 C67.372491 66.61228119 67.38170074 67.82612488 67.39118958 69.07675171 C67.34787502 77.10608734 66.87507069 84.90994127 62.1328125 91.65625 C61.47023437 92.2646875 60.80765625 92.873125 60.125 93.5 C59.46757812 94.1290625 58.81015625 94.758125 58.1328125 95.40625 C54.19423598 98.34936213 50.62090034 99.25122035 45.75073242 99.22705078 C44.71589722 99.22680908 43.68106201 99.22656738 42.61486816 99.22631836 C41.53926636 99.21608643 40.46366455 99.20585449 39.35546875 99.1953125 C38.35793579 99.19329834 37.36040283 99.19128418 36.3326416 99.18920898 C32.61754742 99.17876976 28.90251894 99.15084719 25.1875 99.125 C16.875625 99.08375 8.56375 99.0425 0 99 C0 66.33 0 33.66 0 0 Z M23 12 C23 37.08 23 62.16 23 88 C32.33221743 88.28506676 32.33221743 88.28506676 40 85 C43.84811732 81.0236121 44.12254685 76.96019265 44.16113281 71.6081543 C44.17074036 70.52990891 44.1803479 69.45166351 44.19024658 68.34074402 C44.19449646 67.18029068 44.19874634 66.01983734 44.203125 64.82421875 C44.21167511 63.0264373 44.21167511 63.0264373 44.22039795 61.19233704 C44.229843 58.65630983 44.23637996 56.12027038 44.24023438 53.58422852 C44.24993651 49.71283461 44.28096417 45.84197238 44.3125 41.97070312 C44.31903065 39.50521148 44.32428088 37.03971605 44.328125 34.57421875 C44.3404718 33.4198381 44.3528186 32.26545746 44.36553955 31.07609558 C44.34867852 24.96507594 44.16385224 20.30807225 41 15 C35.96666667 10.6 35.96666667 10.6 23 12 Z " fill="#CD7F1C" transform="translate(70,229)"/>
<path d="M0 0 C0 42.24 0 84.48 0 128 C-12.54 128 -25.08 128 -38 128 C-38 86.09 -38 44.18 -38 1 C-25.36114907 0.09722493 -12.67105187 0 0 0 Z " fill="#7A3717" transform="translate(496,875)"/>
<path d="M0 0 C1.16662926 -0.00642769 1.16662926 -0.00642769 2.35682678 -0.01298523 C3.99658233 -0.01871055 5.63636327 -0.01924207 7.27612305 -0.01489258 C9.77371893 -0.01173322 12.27012851 -0.03521079 14.76757812 -0.06054688 C16.36588393 -0.06282025 17.9641929 -0.06352318 19.5625 -0.0625 C20.30330307 -0.07170975 21.04410614 -0.08091949 21.80735779 -0.09040833 C28.0431509 -0.03524799 31.94932241 1.5790366 36.53515625 5.73828125 C37.29828125 6.58390625 38.06140625 7.42953125 38.84765625 8.30078125 C39.40453125 8.89890625 39.96140625 9.49703125 40.53515625 10.11328125 C44.78202316 17.19139276 44.15439384 25.67740612 44.1484375 33.63671875 C44.15272263 34.91124908 44.15700775 36.18577942 44.16142273 37.49893188 C44.1671494 40.18692949 44.16862154 42.87454101 44.16333008 45.5625 C44.15754313 48.98055447 44.17446541 52.39806569 44.19767475 55.8160305 C44.21608471 59.1104216 44.21222411 62.40478558 44.2109375 65.69921875 C44.22014725 66.91306244 44.22935699 68.12690613 44.23884583 69.37753296 C44.19553127 77.40686859 43.72272694 85.21072252 38.98046875 91.95703125 C38.31789063 92.56546875 37.6553125 93.17390625 36.97265625 93.80078125 C36.31523438 94.42984375 35.6578125 95.05890625 34.98046875 95.70703125 C30.16728966 99.30369255 25.54888007 99.6087445 19.6953125 99.6015625 C18.52868324 99.60799019 18.52868324 99.60799019 17.33848572 99.61454773 C15.69873017 99.62027305 14.05894923 99.62080457 12.41918945 99.61645508 C9.92159357 99.61329572 7.42518399 99.63677329 4.92773438 99.66210938 C3.32942857 99.66438275 1.7311196 99.66508568 0.1328125 99.6640625 C-0.97839211 99.67787712 -0.97839211 99.67787712 -2.11204529 99.69197083 C-8.71461169 99.6335661 -13.30038421 97.59107051 -17.90234375 92.92578125 C-18.76085937 92.07886719 -18.76085937 92.07886719 -19.63671875 91.21484375 C-23.02977417 86.92979953 -23.40639939 82.84503878 -23.42700195 77.49438477 C-23.43211288 76.83029602 -23.43722382 76.16620728 -23.44248962 75.48199463 C-23.45633211 73.29779928 -23.45543299 71.11392136 -23.453125 68.9296875 C-23.4570148 67.40420923 -23.46135005 65.87873203 -23.46611023 64.35325623 C-23.47356087 61.15986618 -23.47328952 57.96658672 -23.46801758 54.77319336 C-23.46222356 50.68993843 -23.47915756 46.6071372 -23.50236225 42.52395725 C-23.5171255 39.37458164 -23.5179678 36.22531466 -23.51485252 33.07591057 C-23.51536441 31.57088256 -23.52057712 30.06584825 -23.53066444 28.56085396 C-23.54306281 26.45246385 -23.53621799 24.34494936 -23.5246582 22.23657227 C-23.52528763 21.03919937 -23.52591705 19.84182648 -23.52656555 18.60816956 C-22.91766153 13.22664972 -20.58950194 9.31119069 -16.77734375 5.55078125 C-16.21273437 4.9784375 -15.648125 4.40609375 -15.06640625 3.81640625 C-10.44518162 0.15715083 -5.69941748 -0.00699287 0 0 Z M0.84765625 16.30078125 C-0.51178157 19.01965689 -0.30209728 21.18785285 -0.3293457 24.23168945 C-0.34218094 25.47670731 -0.35501617 26.72172516 -0.36824036 28.00447083 C-0.37640803 29.37016401 -0.38385171 30.73586169 -0.390625 32.1015625 C-0.39470053 32.78853903 -0.39877605 33.47551556 -0.40297508 34.18330956 C-0.42383551 37.8200386 -0.43813679 41.45672992 -0.44750977 45.09350586 C-0.458569 48.84634133 -0.49296233 52.59858299 -0.53268147 56.35120869 C-0.55885286 59.23975207 -0.56720204 62.12815414 -0.57079124 65.01680565 C-0.57565664 66.39988397 -0.58726949 67.782956 -0.60582924 69.16591835 C-0.63022474 71.104363 -0.62683546 73.04309657 -0.62231445 74.98168945 C-0.62818069 76.08374222 -0.63404694 77.18579498 -0.64009094 78.32124329 C-0.03872605 81.99484624 1.28608597 83.65128807 3.84765625 86.30078125 C7.05873512 87.90632069 10.36436353 87.77547181 13.84765625 87.30078125 C16.99520102 85.5217342 18.42873055 84.19399364 19.96166992 80.92553711 C21.26411412 75.59696479 21.15276937 70.39619303 21.1484375 64.9296875 C21.15272263 63.73399643 21.15700775 62.53830536 21.16142273 61.30638123 C21.16715574 58.7823042 21.1676739 56.25821066 21.16333008 53.73413086 C21.16017029 49.88040899 21.1836429 46.02745516 21.20898438 42.17382812 C21.21125753 39.71744888 21.21196079 37.26106758 21.2109375 34.8046875 C21.22014725 33.65658096 21.22935699 32.50847443 21.23884583 31.32557678 C21.1988057 24.3750715 20.90581039 18.81199526 16.16015625 13.36328125 C10.10751607 10.58233847 5.3566455 11.65515596 0.84765625 16.30078125 Z " fill="#CD7F1C" transform="translate(788.15234375,228.69921875)"/>
<path d="M0 0 C1.16662926 -0.00642769 1.16662926 -0.00642769 2.35682678 -0.01298523 C3.99658233 -0.01871055 5.63636327 -0.01924207 7.27612305 -0.01489258 C9.77371893 -0.01173322 12.27012851 -0.03521079 14.76757812 -0.06054688 C16.36588393 -0.06282025 17.9641929 -0.06352318 19.5625 -0.0625 C20.30330307 -0.07170975 21.04410614 -0.08091949 21.80735779 -0.09040833 C28.0431509 -0.03524799 31.94932241 1.5790366 36.53515625 5.73828125 C37.29828125 6.58390625 38.06140625 7.42953125 38.84765625 8.30078125 C39.40453125 8.89890625 39.96140625 9.49703125 40.53515625 10.11328125 C44.78202316 17.19139276 44.15439384 25.67740612 44.1484375 33.63671875 C44.15272263 34.91124908 44.15700775 36.18577942 44.16142273 37.49893188 C44.1671494 40.18692949 44.16862154 42.87454101 44.16333008 45.5625 C44.15754313 48.98055447 44.17446541 52.39806569 44.19767475 55.8160305 C44.21608471 59.1104216 44.21222411 62.40478558 44.2109375 65.69921875 C44.22014725 66.91306244 44.22935699 68.12690613 44.23884583 69.37753296 C44.19553127 77.40686859 43.72272694 85.21072252 38.98046875 91.95703125 C38.31789063 92.56546875 37.6553125 93.17390625 36.97265625 93.80078125 C36.31523438 94.42984375 35.6578125 95.05890625 34.98046875 95.70703125 C30.16728966 99.30369255 25.54888007 99.6087445 19.6953125 99.6015625 C18.52868324 99.60799019 18.52868324 99.60799019 17.33848572 99.61454773 C15.69873017 99.62027305 14.05894923 99.62080457 12.41918945 99.61645508 C9.92159357 99.61329572 7.42518399 99.63677329 4.92773438 99.66210938 C3.32942857 99.66438275 1.7311196 99.66508568 0.1328125 99.6640625 C-0.97839211 99.67787712 -0.97839211 99.67787712 -2.11204529 99.69197083 C-8.71461169 99.6335661 -13.30038421 97.59107051 -17.90234375 92.92578125 C-18.76085937 92.07886719 -18.76085937 92.07886719 -19.63671875 91.21484375 C-23.02977417 86.92979953 -23.40639939 82.84503878 -23.42700195 77.49438477 C-23.43211288 76.83029602 -23.43722382 76.16620728 -23.44248962 75.48199463 C-23.45633211 73.29779928 -23.45543299 71.11392136 -23.453125 68.9296875 C-23.4570148 67.40420923 -23.46135005 65.87873203 -23.46611023 64.35325623 C-23.47356087 61.15986618 -23.47328952 57.96658672 -23.46801758 54.77319336 C-23.46222356 50.68993843 -23.47915756 46.6071372 -23.50236225 42.52395725 C-23.5171255 39.37458164 -23.5179678 36.22531466 -23.51485252 33.07591057 C-23.51536441 31.57088256 -23.52057712 30.06584825 -23.53066444 28.56085396 C-23.54306281 26.45246385 -23.53621799 24.34494936 -23.5246582 22.23657227 C-23.52528763 21.03919937 -23.52591705 19.84182648 -23.52656555 18.60816956 C-22.91766153 13.22664972 -20.58950194 9.31119069 -16.77734375 5.55078125 C-16.21273437 4.9784375 -15.648125 4.40609375 -15.06640625 3.81640625 C-10.44518162 0.15715083 -5.69941748 -0.00699287 0 0 Z M0.84765625 16.30078125 C-0.51178157 19.01965689 -0.30209728 21.18785285 -0.3293457 24.23168945 C-0.34218094 25.47670731 -0.35501617 26.72172516 -0.36824036 28.00447083 C-0.37640803 29.37016401 -0.38385171 30.73586169 -0.390625 32.1015625 C-0.39470053 32.78853903 -0.39877605 33.47551556 -0.40297508 34.18330956 C-0.42383551 37.8200386 -0.43813679 41.45672992 -0.44750977 45.09350586 C-0.458569 48.84634133 -0.49296233 52.59858299 -0.53268147 56.35120869 C-0.55885286 59.23975207 -0.56720204 62.12815414 -0.57079124 65.01680565 C-0.57565664 66.39988397 -0.58726949 67.782956 -0.60582924 69.16591835 C-0.63022474 71.104363 -0.62683546 73.04309657 -0.62231445 74.98168945 C-0.62818069 76.08374222 -0.63404694 77.18579498 -0.64009094 78.32124329 C-0.03872605 81.99484624 1.28608597 83.65128807 3.84765625 86.30078125 C7.05873512 87.90632069 10.36436353 87.77547181 13.84765625 87.30078125 C16.99520102 85.5217342 18.42873055 84.19399364 19.96166992 80.92553711 C21.26411412 75.59696479 21.15276937 70.39619303 21.1484375 64.9296875 C21.15272263 63.73399643 21.15700775 62.53830536 21.16142273 61.30638123 C21.16715574 58.7823042 21.1676739 56.25821066 21.16333008 53.73413086 C21.16017029 49.88040899 21.1836429 46.02745516 21.20898438 42.17382812 C21.21125753 39.71744888 21.21196079 37.26106758 21.2109375 34.8046875 C21.22014725 33.65658096 21.22935699 32.50847443 21.23884583 31.32557678 C21.1988057 24.3750715 20.90581039 18.81199526 16.16015625 13.36328125 C10.10751607 10.58233847 5.3566455 11.65515596 0.84765625 16.30078125 Z " fill="#CD7F1C" transform="translate(727.15234375,69.69921875)"/>
<path d="M0 0 C7.59 0 15.18 0 23 0 C23.00410889 2.42754639 23.00821777 4.85509277 23.01245117 7.35620117 C23.02965265 15.37904055 23.07416088 23.4015613 23.13209057 31.42420483 C23.16637377 36.28815559 23.19147261 41.15179183 23.19555664 46.01586914 C23.19983675 50.71051355 23.22827536 55.40444826 23.27343178 60.09887123 C23.28641603 61.88936542 23.29071117 63.6799445 23.28615379 65.47047997 C23.28125419 67.98004039 23.30730881 70.48752146 23.34057617 72.99682617 C23.32763771 74.10597633 23.32763771 74.10597633 23.31443787 75.23753357 C23.40218324 79.18884993 23.88135848 80.85448622 26.41230774 83.95869446 C29.63584945 86.50159095 31.11781576 86.74597214 35.06640625 86.4921875 C38.41987095 85.6385783 39.98027505 83.6929666 42 81 C43.34748761 77.27796389 43.17342994 73.38757127 43.20532227 69.47753906 C43.21522186 68.72593002 43.22512146 67.97432098 43.23532104 67.19993591 C43.26684466 64.72186404 43.29165723 62.24377302 43.31640625 59.765625 C43.33698367 58.04497791 43.35798036 56.3243358 43.37937927 54.60369873 C43.43451851 50.07952908 43.48396367 45.55531443 43.53222656 41.03106689 C43.58250113 36.4125977 43.63815609 31.7941937 43.69335938 27.17578125 C43.8008413 18.11724117 43.901811 9.05864558 44 0 C51.59 0 59.18 0 67 0 C67.06797285 10.12760575 67.12292939 20.25505819 67.15543652 30.38284111 C67.171044 35.08636882 67.1921917 39.78973137 67.22631836 44.49316406 C67.25908815 49.03840873 67.27688994 53.58349527 67.28463173 58.12884903 C67.29014377 59.85666515 67.30090692 61.58447334 67.31719017 63.31222153 C67.50441291 84.01464272 67.50441291 84.01464272 62.1328125 91.65625 C61.47023438 92.2646875 60.80765625 92.873125 60.125 93.5 C59.46757813 94.1290625 58.81015625 94.758125 58.1328125 95.40625 C53.31963341 99.0029113 48.70122382 99.30796325 42.84765625 99.30078125 C41.68102699 99.30720894 41.68102699 99.30720894 40.49082947 99.31376648 C38.85107392 99.3194918 37.21129298 99.32002332 35.5715332 99.31567383 C33.07393732 99.31251447 30.57752774 99.33599204 28.08007812 99.36132812 C26.48177232 99.3636015 24.88346335 99.36430443 23.28515625 99.36328125 C22.17395164 99.37709587 22.17395164 99.37709587 21.04029846 99.39118958 C14.43773206 99.33278485 9.85195954 97.29028926 5.25 92.625 C4.39148438 91.77808594 4.39148438 91.77808594 3.515625 90.9140625 C-0.18797952 86.23682999 -0.28101288 81.48109558 -0.22705078 75.72143555 C-0.22734283 74.90140549 -0.22763489 74.08137543 -0.22793579 73.23649597 C-0.22654675 70.53646115 -0.21100567 67.83670514 -0.1953125 65.13671875 C-0.19158085 63.2605657 -0.1887346 61.3844107 -0.18673706 59.508255 C-0.17911254 54.57793772 -0.15947417 49.64773886 -0.1373291 44.71746826 C-0.11684524 39.68340659 -0.10772991 34.64932573 -0.09765625 29.61523438 C-0.07622717 19.74342926 -0.04105463 9.87174302 0 0 Z " fill="#CD7F1C" transform="translate(474,70)"/>
<path d="M0 0 C7 0 7 0 8.93359375 1.28515625 C9.42988281 1.87167969 9.92617188 2.45820313 10.4375 3.0625 C12.73622074 5.60986824 15.01079699 7.96241316 17.625 10.1875 C21.32714411 13.37825845 24.91836141 16.67569096 28.5 20 C32.58282308 23.78651253 36.69770509 27.51767734 40.91015625 31.16015625 C44.17297291 34.03265465 47.35916146 36.98862684 50.55639648 39.93359375 C54.14703477 43.23480309 57.78384753 46.47382624 61.4765625 49.66015625 C62.69172835 50.72887904 63.8557106 51.8557106 65 53 C65.33 35.51 65.66 18.02 66 0 C69.96 0 73.92 0 78 0 C78 32.67 78 65.34 78 99 C70 99 70 99 67.75 97.49609375 C67.1725 96.81675781 66.595 96.13742187 66 95.4375 C65.00226563 94.33148438 65.00226563 94.33148438 63.984375 93.203125 C63.32953125 92.47609375 62.6746875 91.7490625 62 91 C60.7701173 89.87346879 59.5200142 88.76858647 58.25 87.6875 C54.76921912 84.69320621 51.37574271 81.61158612 48 78.5 C44.69988699 75.46093308 41.39050176 72.43843486 38 69.5 C33.65884048 65.73645838 29.44418061 61.8377513 25.22265625 57.94140625 C21.18385806 54.255085 17.0869593 50.63285271 13 47 C12.67 64.16 12.34 81.32 12 99 C8.04 99 4.08 99 0 99 C0 66.33 0 33.66 0 0 Z " fill="#CD7F1C" transform="translate(877,229)"/>
<path d="M0 0 C7 0 7 0 8.93359375 1.28515625 C9.42988281 1.87167969 9.92617188 2.45820312 10.4375 3.0625 C12.73622074 5.60986824 15.01079699 7.96241316 17.625 10.1875 C21.32714411 13.37825845 24.91836141 16.67569096 28.5 20 C32.58282308 23.78651253 36.69770509 27.51767734 40.91015625 31.16015625 C44.17297291 34.03265465 47.35916146 36.98862684 50.55639648 39.93359375 C54.14703477 43.23480309 57.78384753 46.47382624 61.4765625 49.66015625 C62.69172835 50.72887904 63.8557106 51.8557106 65 53 C65.33 35.51 65.66 18.02 66 0 C69.96 0 73.92 0 78 0 C78 32.67 78 65.34 78 99 C70 99 70 99 67.75 97.49609375 C67.1725 96.81675781 66.595 96.13742188 66 95.4375 C65.00226563 94.33148438 65.00226563 94.33148438 63.984375 93.203125 C63.32953125 92.47609375 62.6746875 91.7490625 62 91 C60.7701173 89.87346879 59.5200142 88.76858647 58.25 87.6875 C54.76921912 84.69320621 51.37574271 81.61158612 48 78.5 C44.69988699 75.46093308 41.39050176 72.43843486 38 69.5 C33.65884048 65.73645838 29.44418061 61.8377513 25.22265625 57.94140625 C21.18385806 54.255085 17.0869593 50.63285271 13 47 C12.67 64.16 12.34 81.32 12 99 C8.04 99 4.08 99 0 99 C0 66.33 0 33.66 0 0 Z " fill="#CD7F1C" transform="translate(792,70)"/>
<path d="M0 0 C7 0 7 0 8.93359375 1.28515625 C9.42988281 1.87167969 9.92617187 2.45820312 10.4375 3.0625 C12.73622074 5.60986824 15.01079699 7.96241316 17.625 10.1875 C21.32714411 13.37825845 24.91836141 16.67569096 28.5 20 C32.58282308 23.78651253 36.69770509 27.51767734 40.91015625 31.16015625 C44.17297291 34.03265465 47.35916146 36.98862684 50.55639648 39.93359375 C54.14703477 43.23480309 57.78384753 46.47382624 61.4765625 49.66015625 C62.69172835 50.72887904 63.8557106 51.8557106 65 53 C65.33 35.51 65.66 18.02 66 0 C69.96 0 73.92 0 78 0 C78 32.67 78 65.34 78 99 C70 99 70 99 67.75 97.49609375 C67.1725 96.81675781 66.595 96.13742188 66 95.4375 C65.00226563 94.33148438 65.00226563 94.33148438 63.984375 93.203125 C63.32953125 92.47609375 62.6746875 91.7490625 62 91 C60.7701173 89.87346879 59.5200142 88.76858647 58.25 87.6875 C54.76921912 84.69320621 51.37574271 81.61158612 48 78.5 C44.69988699 75.46093308 41.39050176 72.43843486 38 69.5 C33.65884048 65.73645838 29.44418061 61.8377513 25.22265625 57.94140625 C21.18385806 54.255085 17.0869593 50.63285271 13 47 C12.67 64.16 12.34 81.32 12 99 C8.04 99 4.08 99 0 99 C0 66.33 0 33.66 0 0 Z " fill="#CD7F1C" transform="translate(221,70)"/>
<path d="M0 0 C4.12536844 0.58743357 7.80002656 1.51497851 11.69921875 2.9765625 C13.36223022 3.59990479 13.36223022 3.59990479 15.05883789 4.23583984 C16.25629639 4.6942627 17.45375488 5.15268555 18.6875 5.625 C19.31204071 5.86309387 19.93658142 6.10118774 20.58004761 6.34649658 C42.56290855 14.7478761 64.14083575 24.19203161 85.5 34.0625 C87.16204468 34.82989502 87.16204468 34.82989502 88.85766602 35.61279297 C90.92936287 36.58210294 92.99200898 37.57106695 95.04370117 38.58203125 C97.99234805 40.04142236 97.99234805 40.04142236 101.10668945 41.21484375 C105.55368621 43.14149862 108.31714507 44.45535151 110.32763672 49.00317383 C111.20439044 52.64340842 111.74576376 56.15485979 112.1875 59.875 C112.785625 64.20625 113.38375 68.5375 114 73 C101.46 73 88.92 73 76 73 C73.75 64 73.75 64 73.22216797 60.78710938 C73.10059326 60.05717773 72.97901855 59.32724609 72.85375977 58.57519531 C72.73444092 57.83881836 72.61512207 57.10244141 72.4921875 56.34375 C72.31828491 55.29429199 72.31828491 55.29429199 72.14086914 54.22363281 C71.71532301 51.64967946 71.29548096 49.07478565 70.875 46.5 C69.92625 40.725 68.9775 34.95 68 29 C49.19 28.505 49.19 28.505 30 28 C29.67 31.96 29.34 35.92 29 40 C28.6491311 42.63244006 28.26785373 45.26117452 27.84375 47.8828125 C27.7365564 48.54916718 27.62936279 49.21552185 27.5189209 49.90206909 C27.29590518 51.28175049 27.07069549 52.66107908 26.84326172 54.04003906 C26.49490273 56.15596067 26.15522071 58.27315617 25.81640625 60.390625 C24.13791292 70.72417415 24.13791292 70.72417415 23 73 C11.12 73 -0.76 73 -13 73 C-11.87493981 60.62433794 -11.87493981 60.62433794 -10.89257812 55.49047852 C-10.56719055 53.76928551 -10.56719055 53.76928551 -10.23522949 52.01332092 C-10.00291626 50.81396408 -9.77060303 49.61460724 -9.53125 48.37890625 C-9.29088013 47.11658676 -9.05051025 45.85426727 -8.80285645 44.55369568 C-8.29833588 41.90505163 -7.79048303 39.25707896 -7.27978516 36.60961914 C-6.62638801 33.22238132 -5.97863015 29.83409761 -5.33298492 26.44537449 C-4.26293763 20.83052196 -3.1892725 15.21634959 -2.10742188 9.60375977 C-1.91724487 8.6154567 -1.72706787 7.62715363 -1.53112793 6.60890198 C-1.07857647 4.38596786 -0.57301455 2.1944517 0 0 Z " fill="#7A3717" transform="translate(846,930)"/>
<path d="M0 0 C0.997569 16.29362697 -4.57407813 31.66205785 -15 44 C-25.44352801 55.18195928 -38.15431661 61.01171587 -53.37109375 62.28125 C-68.62426162 62.6967733 -82.06465951 58.72609071 -96 53 C-97.21909828 44.48551041 -97.11268452 36.01526523 -97.0625 27.4375 C-97.0574746 25.93685045 -97.05291353 24.43619928 -97.04882812 22.93554688 C-97.03790576 19.29033023 -97.02069856 15.64517578 -97 12 C-92.14504409 13.90728556 -87.46829662 16.13108055 -82.79101562 18.43359375 C-75.70749173 21.81915491 -68.7435954 23.2900746 -60.9375 23.8125 C-60.26912109 23.87630859 -59.60074219 23.94011719 -58.91210938 24.00585938 C-53.6850326 24.36652259 -50.51779809 23.41361816 -46 21 C-44.65705519 19.34106818 -43.32255312 17.67523395 -42 16 C-40.34033553 15.63339022 -38.67200581 15.3054267 -37 15 C-35.11208388 14.26000507 -33.24422961 13.46764341 -31.39453125 12.63671875 C-29.79448242 11.92418945 -29.79448242 11.92418945 -28.16210938 11.19726562 C-27.05673828 10.69904297 -25.95136719 10.20082031 -24.8125 9.6875 C-3.19205298 0 -3.19205298 0 0 0 Z " fill="#7A3716" transform="translate(162,943)"/>
<path d="M0 0 C5.00607039 0.71515291 9.62243438 1.54052235 14.5 2.75 C15.7478125 3.05421875 16.995625 3.3584375 18.28125 3.671875 C24.92616066 5.54213131 31.45115073 7.81705024 38 10 C38 38.71 38 67.42 38 97 C25.46 97 12.92 97 0 97 C0 64.99 0 32.98 0 0 Z " fill="#7A3717" transform="translate(769,906)"/>
<path d="M0 0 C1.15048828 -0.02449219 2.30097656 -0.04898438 3.48632812 -0.07421875 C11.67658408 -0.10238009 17.14985276 0.88298077 23.5 6.375 C26.28598941 11.32787007 28.1875 17.64165778 28.1875 23.375 C24.2275 23.375 20.2675 23.375 16.1875 23.375 C15.2109375 21.35677083 14.234375 19.33854167 13.2578125 17.3203125 C12.22192457 15.22364981 12.22192457 15.22364981 10.1875 13.375 C5.71004707 12.7041621 1.57052733 12.61762789 -2.4375 14.8125 C-4.60221349 18.84673877 -5.01812822 21.92239577 -3.8125 26.375 C-1.29605934 30.46421608 1.90182446 33.89753219 5.1875 37.375 C6.25790929 38.51683635 7.32821797 39.65876703 8.3984375 40.80078125 C8.94886719 41.38746582 9.49929688 41.97415039 10.06640625 42.57861328 C28.23291763 61.96219662 28.23291763 61.96219662 28.171875 74.61328125 C27.7049585 83.98344653 25.65426318 89.2169113 19.1015625 95.859375 C13.10431049 100.60821945 6.0039624 99.70668023 -1.25 99.6875 C-3.07241211 99.71166992 -3.07241211 99.71166992 -4.93164062 99.73632812 C-6.10791016 99.73697266 -7.28417969 99.73761719 -8.49609375 99.73828125 C-9.56400146 99.74126221 -10.63190918 99.74424316 -11.73217773 99.74731445 C-16.95356943 99.11621179 -20.82516042 96.93086751 -24.125 92.875 C-24.61613281 92.2871875 -25.10726562 91.699375 -25.61328125 91.09375 C-28.58917124 86.82863079 -27.88457595 82.34824088 -27.8125 77.375 C-23.8525 77.375 -19.8925 77.375 -15.8125 77.375 C-15.565 78.48875 -15.3175 79.6025 -15.0625 80.75 C-14.22604244 84.36016184 -14.22604244 84.36016184 -12.015625 85.578125 C-8.27401803 86.9314722 -4.72947074 86.92840688 -0.8125 86.375 C2.05848847 84.76444549 2.8256372 83.62084191 3.734375 80.4921875 C4.20515983 76.62898256 3.67352907 74.16479724 1.625 70.8359375 C-0.73487046 67.89477542 -3.22463573 65.11392373 -5.8125 62.375 C-6.88290929 61.23316365 -7.95321797 60.09123297 -9.0234375 58.94921875 C-10.69933153 57.16172926 -12.37544263 55.37453057 -14.05639648 53.59179688 C-22.41814971 44.63763428 -27.98695876 37.57401833 -28.0625 25.0625 C-28.083125 24.22009766 -28.10375 23.37769531 -28.125 22.50976562 C-28.16366464 16.32825621 -27.13291778 12.25627705 -23.1640625 7.328125 C-22.59429688 6.76609375 -22.02453125 6.2040625 -21.4375 5.625 C-20.87289062 5.05265625 -20.30828125 4.4803125 -19.7265625 3.890625 C-13.88377559 -0.73590831 -7.07762392 0.00785094 0 0 Z " fill="#CD7F1C" transform="translate(588.8125,69.625)"/>
<path d="M0 0 C0.79803543 -0.00807175 1.59607086 -0.01614349 2.41828918 -0.02445984 C4.10867145 -0.03828627 5.79908146 -0.04901487 7.48950195 -0.05688477 C9.20898686 -0.06838146 10.92843673 -0.08879667 12.64770508 -0.1184082 C15.14038187 -0.16133164 17.6319983 -0.17728938 20.125 -0.1875 C20.88362839 -0.20500809 21.64225677 -0.22251617 22.4238739 -0.24055481 C28.59154199 -0.21585336 33.94804146 1.41854043 38.48649597 5.76176453 C42.82847711 10.7585155 43.1082898 16.87687319 43.89453125 23.23828125 C39.60453125 23.23828125 35.31453125 23.23828125 30.89453125 23.23828125 C30.62640625 22.14515625 30.35828125 21.05203125 30.08203125 19.92578125 C28.8092674 15.90058442 28.8092674 15.90058442 25.89453125 13.23828125 C22.63494868 12.58560581 19.33729999 12.72884236 16.01953125 12.73828125 C14.67181641 12.69574219 14.67181641 12.69574219 13.296875 12.65234375 C12.42417969 12.64976562 11.55148437 12.6471875 10.65234375 12.64453125 C9.46342529 12.63389648 9.46342529 12.63389648 8.25048828 12.62304688 C5.59167748 13.31736845 3.74761386 14.22267499 1.88479614 16.2779541 C-0.55535907 21.10848231 0.18551333 27.03834048 0.23046875 32.33203125 C0.22709772 33.72538679 0.22224271 35.11873945 0.2159729 36.51208496 C0.2086148 39.42745047 0.21927094 42.34204822 0.24267578 45.25732422 C0.27116514 48.98688618 0.25475514 52.71464919 0.22481346 56.4441452 C0.2067104 59.31994077 0.21251179 62.1953126 0.22545242 65.07112122 C0.22877824 66.44578771 0.2247283 67.82049318 0.21305466 69.19511414 C-0.24089074 77.50091824 -0.24089074 77.50091824 3.29931641 84.56835938 C8.65516311 88.01464267 14.68890663 87.62613279 20.89453125 87.23828125 C24.41808883 86.46950505 26.20982213 85.94660102 28.70703125 83.36328125 C30.13135396 81.03201003 30.13135396 81.03201003 30.89453125 77.23828125 C35.18453125 77.23828125 39.47453125 77.23828125 43.89453125 77.23828125 C42.58098727 85.22900711 41.5262769 91.42182544 34.83203125 96.61328125 C30.05243635 99.25731247 26.05351166 99.41215284 20.71875 99.44140625 C19.91597122 99.44710632 19.11319244 99.4528064 18.28608704 99.4586792 C16.58730382 99.46812164 14.88850235 99.47466018 13.18969727 99.47851562 C10.60204749 99.48820629 8.01519729 99.51922983 5.42773438 99.55078125 C3.77474428 99.55731326 2.12174853 99.56256296 0.46875 99.56640625 C-0.30020096 99.57875305 -1.06915192 99.59109985 -1.86140442 99.6038208 C-7.60208967 99.5802407 -11.59195498 98.26252326 -16.15234375 94.58984375 C-16.99539063 93.73519531 -16.99539063 93.73519531 -17.85546875 92.86328125 C-18.71398437 92.01636719 -18.71398437 92.01636719 -19.58984375 91.15234375 C-22.98289917 86.86729953 -23.35952439 82.78253878 -23.38012695 77.43188477 C-23.38523788 76.76779602 -23.39034882 76.10370728 -23.39561462 75.41949463 C-23.40945711 73.23529928 -23.40855799 71.05142136 -23.40625 68.8671875 C-23.4101398 67.34170923 -23.41447505 65.81623203 -23.41923523 64.29075623 C-23.42668587 61.09736618 -23.42641452 57.90408672 -23.42114258 54.71069336 C-23.41534856 50.62743843 -23.43228256 46.5446372 -23.45548725 42.46145725 C-23.4702505 39.31208164 -23.4710928 36.16281466 -23.46797752 33.01341057 C-23.46848941 31.50838256 -23.47370212 30.00334825 -23.48378944 28.49835396 C-23.49618781 26.38996385 -23.48934299 24.28244936 -23.4777832 22.17407227 C-23.47841263 20.97669937 -23.47904205 19.77932648 -23.47969055 18.54566956 C-22.65118721 11.22332158 -18.4642548 7.00434035 -12.98046875 2.48828125 C-8.90773149 -0.22687693 -4.70774389 0.04523682 0 0 Z " fill="#CD7F1C" transform="translate(497.10546875,228.76171875)"/>
<path d="M0 0 C18.15 0 36.3 0 55 0 C55 3.96 55 7.92 55 12 C44.44 12 33.88 12 23 12 C23 22.56 23 33.12 23 44 C30.26 44 37.52 44 45 44 C45 47.96 45 51.92 45 56 C37.74 56 30.48 56 23 56 C23 66.56 23 77.12 23 88 C33.56 88 44.12 88 55 88 C55 91.63 55 95.26 55 99 C36.85 99 18.7 99 0 99 C0 66.33 0 33.66 0 0 Z " fill="#CD7F1C" transform="translate(373,229)"/>
<path d="M0 0 C18.15 0 36.3 0 55 0 C55 3.96 55 7.92 55 12 C44.44 12 33.88 12 23 12 C23 22.56 23 33.12 23 44 C30.26 44 37.52 44 45 44 C45 47.96 45 51.92 45 56 C37.74 56 30.48 56 23 56 C23 66.56 23 77.12 23 88 C33.56 88 44.12 88 55 88 C55 91.63 55 95.26 55 99 C36.85 99 18.7 99 0 99 C0 66.33 0 33.66 0 0 Z " fill="#CD7F1C" transform="translate(182,229)"/>
<path d="M0 0 C22.11 0 44.22 0 67 0 C67 3.96 67 7.92 67 12 C59.74 12 52.48 12 45 12 C45 40.71 45 69.42 45 99 C37.08 99 29.16 99 21 99 C21 70.29 21 41.58 21 12 C14.07 12 7.14 12 0 12 C0 8.04 0 4.08 0 0 Z " fill="#CD7F1C" transform="translate(574,229)"/>
<path d="M0 0 C22.11 0 44.22 0 67 0 C67 3.96 67 7.92 67 12 C59.74 12 52.48 12 45 12 C45 40.71 45 69.42 45 99 C37.08 99 29.16 99 21 99 C21 70.29 21 41.58 21 12 C14.07 12 7.14 12 0 12 C0 8.04 0 4.08 0 0 Z " fill="#CD7F1C" transform="translate(272,229)"/>
<path d="M0 0 C22.11 0 44.22 0 67 0 C67 3.96 67 7.92 67 12 C59.74 12 52.48 12 45 12 C45 40.71 45 69.42 45 99 C37.08 99 29.16 99 21 99 C21 70.29 21 41.58 21 12 C14.07 12 7.14 12 0 12 C0 8.04 0 4.08 0 0 Z " fill="#CD7F1C" transform="translate(309,70)"/>
<path d="M0 0 C7.59 0 15.18 0 23 0 C23 32.67 23 65.34 23 99 C15.41 99 7.82 99 0 99 C0 66.33 0 33.66 0 0 Z " fill="#CD7F1C" transform="translate(685,229)"/>
<path d="M0 0 C7.59 0 15.18 0 23 0 C23 32.67 23 65.34 23 99 C15.41 99 7.82 99 0 99 C0 66.33 0 33.66 0 0 Z " fill="#CD7F1C" transform="translate(648,70)"/>
<path d="M0 0 C7.59 0 15.18 0 23 0 C23 32.67 23 65.34 23 99 C15.41 99 7.82 99 0 99 C0 66.33 0 33.66 0 0 Z " fill="#CD7F1C" transform="translate(165,70)"/>
<path d="M0 0 C2.31 0 4.62 0 7 0 C7 10.23 7 20.46 7 31 C10.465 30.505 10.465 30.505 14 30 C14.33 20.1 14.66 10.2 15 0 C17.64 0 20.28 0 23 0 C23 10.23 23 20.46 23 31 C25.31 30.34 27.62 29.68 30 29 C30.33 19.43 30.66 9.86 31 0 C33.31 0 35.62 0 38 0 C38.11686443 4.02058602 38.18747388 8.04073082 38.25 12.0625 C38.30027344 13.7630957 38.30027344 13.7630957 38.3515625 15.49804688 C38.42975293 22.20287602 38.32911137 26.71762404 34 32 C29.61315091 34.67199704 26.39322888 35.36320957 21.2890625 35.29296875 C20.16709473 35.28547607 19.04512695 35.2779834 17.88916016 35.27026367 C15.77840088 35.22929565 15.77840088 35.22929565 13.625 35.1875 C6.880625 35.0946875 6.880625 35.0946875 0 35 C0 23.45 0 11.9 0 0 Z " fill="#C4791A" transform="translate(468,406)"/>
<path d="M0 0 C0.99 0.33 1.98 0.66 3 1 C3.18175781 2.18335938 3.36351562 3.36671875 3.55078125 4.5859375 C6.12060839 20.92084414 9.58816996 31.34185128 20.66601562 43.87695312 C25.57660037 49.50225283 28.31521558 54.00716061 29.5 61.5 C30.35538371 66.56030026 31.35465128 71.47529794 32.6875 76.4375 C33.92170148 81.6762914 34.34924881 86.70195181 34.4375 92.0625 C34.47073364 93.15292603 34.47073364 93.15292603 34.50463867 94.26538086 C34.49057014 97.69368023 34.2575719 99.65003818 32.203125 102.44140625 C29.59340889 104.28764158 27.43548914 104.92957517 24.22265625 104.7734375 C18.06750968 102.6315763 13.89181527 95.84601106 10.87890625 90.34375 C8.11909984 84.6046533 7.26277038 78.36452953 6.19726562 72.1328125 C4.78526707 65.02854103 2.23310258 60.9619909 -3 56 C-3.86625 55.16210938 -4.7325 54.32421875 -5.625 53.4609375 C-6.40875 52.77257812 -7.1925 52.08421875 -8 51.375 C-8.84691406 50.61960937 -9.69382812 49.86421875 -10.56640625 49.0859375 C-12.04092334 47.82206571 -13.5428186 46.58806664 -15.08984375 45.4140625 C-22.35786674 39.85164321 -23.11615016 32.20775032 -24.66796875 23.578125 C-24.99738015 21.0203424 -25.06022329 18.57570362 -25 16 C-24.01 16 -23.02 16 -22 16 C-20.27151802 19.65061132 -19.72709915 22.97754094 -19.31835938 26.9765625 C-18.50651944 33.99185112 -17.44174074 38.58462963 -12 43.5 C-10.03085128 45.04027702 -8.02976965 46.540536 -6 48 C-4.00983971 49.5484731 -2.03025595 51.11065395 -0.0625 52.6875 C0.81277344 53.35136719 1.68804688 54.01523437 2.58984375 54.69921875 C8.64093677 60.47570787 9.82505659 66.82798156 11.3125 74.75 C13.09861345 83.42203198 15.14278742 90.15733222 21 97 C21.44085937 97.58394531 21.88171875 98.16789063 22.3359375 98.76953125 C24.79704768 100.58936624 27.01872059 100.07916903 30 100 C30.43643717 90.95863143 29.1993089 82.95477313 27.0625 74.1875 C26.50943346 71.84819537 25.95858347 69.50836537 25.41015625 67.16796875 C25.15242432 66.08781494 24.89469238 65.00766113 24.62915039 63.89477539 C24.12421511 61.57152449 23.78003387 59.36800699 23.5625 57.0078125 C22.85966665 53.24960637 21.45682678 51.53524674 18.9375 48.6875 C18.12796875 47.74261719 17.3184375 46.79773438 16.484375 45.82421875 C15.66453125 44.89222656 14.8446875 43.96023438 14 43 C3.91962558 31.52740604 -0.40558167 18.31766871 -1.140625 3.0859375 C-1 1 -1 1 0 0 Z " fill="#FAF4ED" transform="translate(521,615)"/>
<path d="M0 0 C5 2 5 2 8.13671875 3.5859375 C17.85999241 8.48501268 27.31678317 11.02978475 38 13 C34.8854462 15.50245843 31.6789731 17.26968194 28.09765625 19.03125 C26.96005859 19.59457031 25.82246094 20.15789063 24.65039062 20.73828125 C23.46638672 21.31964844 22.28238281 21.90101563 21.0625 22.5 C18.71914079 23.65440197 16.37665908 24.81058731 14.03515625 25.96875 C12.9975415 26.47857422 11.95992676 26.98839844 10.89086914 27.51367188 C7.9879732 28.95389544 7.9879732 28.95389544 5.31030273 30.68945312 C3 32 3 32 0 32 C0 21.44 0 10.88 0 0 Z " fill="#C57A1A" transform="translate(65,955)"/>
<path d="M0 0 C2.31 0 4.62 0 7 0 C7 5.28 7 10.56 7 16 C9.64 16 12.28 16 15 16 C15 10.72 15 5.44 15 0 C17.64 0 20.28 0 23 0 C23 11.55 23 23.1 23 35 C20.36 35 17.72 35 15 35 C15 30.05 15 25.1 15 20 C12.36 20 9.72 20 7 20 C7 24.95 7 29.9 7 35 C4.69 35 2.38 35 0 35 C0 23.45 0 11.9 0 0 Z " fill="#C3781A" transform="translate(560,406)"/>
<path d="M0 0 C5.01443696 2.25314089 8.99365509 5.55533094 12.98046875 9.29296875 C10.69191195 15.13273438 5.21947676 18.2647226 -0.01953125 21.29296875 C-3.35866352 22.38449529 -4.40128962 22.12338486 -8.01953125 21.29296875 C-13.60755397 18.24977611 -18.44330897 13.54893181 -22.01953125 8.29296875 C-22.01953125 7.63296875 -22.01953125 6.97296875 -22.01953125 6.29296875 C-15.08000842 1.1808536 -8.61109647 -3.01471656 0 0 Z " fill="#FDFAF6" transform="translate(533.01953125,494.70703125)"/>
<path d="M0 0 C7.59 0 15.18 0 23 0 C23 1.32 23 2.64 23 4 C20.36 4 17.72 4 15 4 C15 14.23 15 24.46 15 35 C12.69 35 10.38 35 8 35 C8 24.77 8 14.54 8 4 C5.36 4 2.72 4 0 4 C0 2.68 0 1.36 0 0 Z " fill="#C87C1B" transform="translate(533,406)"/>
<path d="M0 0 C2.31 0 4.62 0 7 0 C7 11.55 7 23.1 7 35 C4.69 35 2.38 35 0 35 C0 23.45 0 11.9 0 0 Z " fill="#CB7D1B" transform="translate(518,406)"/>
<path d="M0 0 C2.875 0.25 2.875 0.25 6 1 C7.375 3.0625 7.375 3.0625 8 5 C6 7 6 7 3.4375 7.1875 C1 7 1 7 0 6 C-0.04080783 4.00041636 -0.04254356 1.99954746 0 0 Z " fill="#CE8323" transform="translate(527,502)"/>
<path d="M0 0 C0.66 0.33 1.32 0.66 2 1 C-2.95 5.95 -7.9 10.9 -13 16 C-13 11.93645091 -11.47015238 10.94829419 -8.75 8 C-7.96109375 7.13375 -7.1721875 6.2675 -6.359375 5.375 C-4.3351828 3.33740256 -2.34982916 1.63841299 0 0 Z " fill="#B06C16" transform="translate(553,783)"/>
<path d="M0 0 C0.66 0.33 1.32 0.66 2 1 C-1.63 4.63 -5.26 8.26 -9 12 C-9.66 11.67 -10.32 11.34 -11 11 C-9.92173635 9.72486237 -8.83714481 8.45507431 -7.75 7.1875 C-7.14671875 6.47980469 -6.5434375 5.77210938 -5.921875 5.04296875 C-4.07629602 3.08110329 -2.20054668 1.54330375 0 0 Z " fill="#B06C16" transform="translate(492,489)"/>
</svg>
